<svg width="28" height="27" viewBox="0 0 28 27" fill="none" xmlns="http://www.w3.org/2000/svg">
<rect width="26.9091" height="26.9091" transform="translate(0.726562)" fill="white"/>
<path d="M19.7869 2.24268H8.57481C5.47867 2.24268 2.96875 4.75259 2.96875 7.84874V19.0609C2.96875 22.157 5.47867 24.6669 8.57481 24.6669H19.7869C22.8831 24.6669 25.393 22.157 25.393 19.0609V7.84874C25.393 4.75259 22.8831 2.24268 19.7869 2.24268Z" fill="#121212"/>
<path d="M18.6653 12.7484C18.8037 13.6815 18.6443 14.6345 18.2098 15.4718C17.7754 16.3091 17.088 16.9882 16.2453 17.4123C15.4027 17.8364 14.4478 17.984 13.5165 17.8341C12.5851 17.6843 11.7248 17.2445 11.0577 16.5775C10.3907 15.9105 9.95097 15.0501 9.8011 14.1187C9.65124 13.1874 9.79886 12.2325 10.223 11.3899C10.6471 10.5473 11.3261 9.85985 12.1634 9.42538C13.0007 8.99092 13.9537 8.83153 14.8868 8.9699C15.8387 9.11105 16.7199 9.55457 17.4003 10.235C18.0807 10.9154 18.5242 11.7966 18.6653 12.7484Z" fill="white"/>
<path d="M20.3457 7.28809H20.3579" stroke="white" stroke-width="2.01818" stroke-linecap="round" stroke-linejoin="round"/>
</svg>
