<svg width="27" height="27" viewBox="0 0 27 27" fill="none" xmlns="http://www.w3.org/2000/svg">
<rect width="26.9091" height="26.9091" fill="white"/>
<path d="M25.7878 3.36333C24.7141 4.12068 23.5253 4.69993 22.2672 5.07878C21.5919 4.30235 20.6945 3.75204 19.6963 3.50227C18.698 3.25251 17.6472 3.31533 16.6859 3.68226C15.7245 4.04918 14.899 4.7025 14.3211 5.55386C13.7432 6.40521 13.4406 7.41352 13.4544 8.44242V9.56363C11.484 9.61472 9.53161 9.17772 7.77101 8.29155C6.01041 7.40538 4.4963 6.09755 3.36352 4.48454C3.36352 4.48454 -1.12133 14.5754 8.96958 19.0603C6.66047 20.6277 3.90972 21.4136 1.12109 21.3027C11.212 26.9088 23.5453 21.3027 23.5453 8.40878C23.5443 8.09647 23.5143 7.78493 23.4556 7.47817C24.6 6.34967 25.4075 4.92485 25.7878 3.36333Z" fill="#121212"/>
</svg>
