<svg width="28" height="27" viewBox="0 0 28 27" fill="none" xmlns="http://www.w3.org/2000/svg">
<rect width="26.9091" height="26.9091" transform="translate(0.818359)" fill="white"/>
<path d="M18.7585 8.97021C20.5427 8.97021 22.2538 9.67898 23.5154 10.9406C24.777 12.2022 25.4858 13.9133 25.4858 15.6975V23.546H21.0009V15.6975C21.0009 15.1028 20.7647 14.5324 20.3442 14.1119C19.9236 13.6913 19.3533 13.4551 18.7585 13.4551C18.1638 13.4551 17.5934 13.6913 17.1729 14.1119C16.7524 14.5324 16.5161 15.1028 16.5161 15.6975V23.546H12.0312V15.6975C12.0312 13.9133 12.74 12.2022 14.0016 10.9406C15.2632 9.67898 16.9743 8.97021 18.7585 8.97021Z" fill="#121212"/>
<path d="M7.54735 10.0908H3.0625V23.5454H7.54735V10.0908Z" fill="#121212"/>
<path d="M5.30492 6.72752C6.54338 6.72752 7.54735 5.72356 7.54735 4.4851C7.54735 3.24664 6.54338 2.24268 5.30492 2.24268C4.06647 2.24268 3.0625 3.24664 3.0625 4.4851C3.0625 5.72356 4.06647 6.72752 5.30492 6.72752Z" fill="#121212"/>
</svg>
