<svg width="44" height="37" viewBox="0 0 44 37" fill="none" xmlns="http://www.w3.org/2000/svg">
<path d="M43.0833 34.1804C43.0797 34.6947 42.874 35.1869 42.5105 35.5508C42.147 35.9146 41.655 36.1209 41.1407 36.125H5.85933C5.34393 36.1245 4.84981 35.9194 4.48554 35.5547C4.12128 35.1901 3.91667 34.6958 3.91667 34.1804V32.2083H39.1667V9.29583L23.5 23.3958L3.91667 5.77083V2.83333C3.91667 2.31395 4.12299 1.81584 4.49025 1.44858C4.85751 1.08132 5.35562 0.875 5.875 0.875H41.125C41.6444 0.875 42.1425 1.08132 42.5098 1.44858C42.877 1.81584 43.0833 2.31395 43.0833 2.83333V34.1804ZM8.68325 4.79167L23.5 18.1279L38.3167 4.79167H8.68325ZM0 24.375H15.6667V28.2917H0V24.375ZM0 14.5833H9.79167V18.5H0V14.5833Z" fill="white"/>
</svg>
