<svg width="1062" height="500" viewBox="0 0 1062 500" fill="none" xmlns="http://www.w3.org/2000/svg">
<path d="M1041.03 0H20.9731C9.38996 0 0 11.6153 0 25.9434V474.057C0 488.385 9.38996 500 20.9731 500H1041.03C1052.61 500 1062 488.385 1062 474.057V25.9434C1062 11.6153 1052.61 0 1041.03 0Z" fill="#0A5076"/>
<path opacity="0.1" d="M443.513 204.649C437.609 206.561 431.724 213.338 429.006 219.323C420.036 239.1 412.637 259.592 404.404 279.71C393.566 306.222 393.473 306.185 413.399 324.497L412.952 324.069C420.618 329.569 428.291 335.073 435.969 340.581C436.907 341.363 437.838 342.145 438.775 342.928C439.731 343.368 440.69 343.813 441.654 344.262C442.25 344.785 442.846 345.305 443.441 345.82C444.349 346.72 445.259 347.614 446.173 348.502C447.017 349.352 447.861 350.196 448.706 351.047L451.337 353.865C457.173 359.278 463 364.691 468.82 370.103C470.397 372.177 471.971 374.248 473.544 376.317C475.146 377.962 476.751 379.602 478.36 381.237C495.914 407.322 513.519 433.472 531.175 459.688C555.554 411.75 591.158 373.357 629.986 337.495C633.562 334.194 635.063 328.644 637.528 324.143C647.938 329.053 668.38 300.536 656.883 290.517C656.821 287.513 657.597 284.198 656.573 281.572C647.727 258.913 638.649 236.349 629.34 213.879C627.93 210.775 625.497 208.249 622.449 206.722C597.824 195.387 571.975 189.118 542.682 188.05C549.604 227.936 556.308 266.575 562.36 301.486C551.727 314.335 542.074 325.999 530.05 340.53C518.635 327.905 509.175 317.842 500.285 307.296C498.317 304.955 497.15 300.709 497.671 297.692C500.607 280.715 504.407 263.886 507.467 246.934C510.968 227.514 514.01 208.019 518.04 183.807C490.56 191.3 466.744 197.079 443.513 204.646L443.513 204.649ZM521.237 49.5109C475.122 66.6561 429.191 84.31 383.244 101.927C373.523 105.652 363.981 109.873 351 115.255C374.328 124.157 393.683 131.928 413.336 138.862C421.232 141.649 424.28 146.057 423.944 154.244C423.479 165.753 423.827 177.293 423.827 191.521C497.876 156.846 569.324 157.435 641.716 191.57C641.716 177.107 641.369 164.94 641.915 152.817C642.088 148.937 643.597 142.947 646.254 141.712C657.937 136.28 670.271 132.245 685.193 126.633C685.193 157.535 685.367 184.494 684.97 211.459C684.92 214.842 680.954 218.045 680.345 221.589C679.575 226.096 678.775 232.012 681.022 235.159C682.766 237.604 692.103 238.443 692.909 237.027C695.299 232.887 696.224 227.138 695.659 222.259C694.84 215.233 690.896 208.473 690.594 201.502C689.83 184.089 691.395 166.547 690.085 149.197C688.843 132.629 691.394 119.96 710.005 116.024C710.291 115.962 710.291 114.553 710.439 113.758C709.769 113.224 709.173 112.473 708.409 112.181C652.314 90.6357 596.277 68.922 539.958 47.959C538.017 47.2877 535.972 46.9641 533.918 47.0032C529.666 47.0032 525.029 48.1024 521.237 49.5109Z" stroke="white" stroke-width="1.99404"/>
</svg>
