<svg width="40" height="41" viewBox="0 0 40 41" fill="none" xmlns="http://www.w3.org/2000/svg">
<path d="M28.334 4.23389H11.6673C7.06494 4.23389 3.33398 7.96485 3.33398 12.5672V29.2339C3.33398 33.8363 7.06494 37.5672 11.6673 37.5672H28.334C32.9364 37.5672 36.6673 33.8363 36.6673 29.2339V12.5672C36.6673 7.96485 32.9364 4.23389 28.334 4.23389Z" stroke="#121212" stroke-width="2" stroke-linecap="round" stroke-linejoin="round"/>
<path d="M26.6665 19.8504C26.8722 21.2375 26.6353 22.6541 25.9894 23.8988C25.3436 25.1434 24.3217 26.1528 23.0692 26.7832C21.8167 27.4136 20.3972 27.6331 19.0128 27.4103C17.6284 27.1875 16.3494 26.5339 15.3579 25.5423C14.3664 24.5508 13.7127 23.2719 13.4899 21.8874C13.2672 20.503 13.4866 19.0836 14.117 17.831C14.7475 16.5785 15.7568 15.5566 17.0015 14.9108C18.2461 14.265 19.6628 14.0281 21.0498 14.2337C22.4647 14.4435 23.7746 15.1028 24.786 16.1142C25.7974 17.1257 26.4567 18.4355 26.6665 19.8504Z" stroke="#121212" stroke-width="2" stroke-linecap="round" stroke-linejoin="round"/>
<path d="M29.166 11.7339H29.1827" stroke="#121212" stroke-width="2" stroke-linecap="round" stroke-linejoin="round"/>
</svg>
