<svg width="40" height="41" viewBox="0 0 40 41" fill="none" xmlns="http://www.w3.org/2000/svg">
<path d="M26.666 14.2339C29.3182 14.2339 31.8617 15.2875 33.7371 17.1628C35.6124 19.0382 36.666 21.5817 36.666 24.2339V35.9006H29.9993V24.2339C29.9993 23.3498 29.6482 22.502 29.023 21.8769C28.3979 21.2517 27.5501 20.9006 26.666 20.9006C25.782 20.9006 24.9341 21.2517 24.309 21.8769C23.6839 22.502 23.3327 23.3498 23.3327 24.2339V35.9006H16.666V24.2339C16.666 21.5817 17.7196 19.0382 19.5949 17.1628C21.4703 15.2875 24.0139 14.2339 26.666 14.2339V14.2339Z" stroke="#121212" stroke-width="2" stroke-linecap="round" stroke-linejoin="round"/>
<path d="M9.99967 15.8999H3.33301V35.8999H9.99967V15.8999Z" stroke="#121212" stroke-width="2" stroke-linecap="round" stroke-linejoin="round"/>
<path d="M6.66732 10.9006C8.50827 10.9006 10.0007 9.40817 10.0007 7.56722C10.0007 5.72627 8.50827 4.23389 6.66732 4.23389C4.82637 4.23389 3.33398 5.72627 3.33398 7.56722C3.33398 9.40817 4.82637 10.9006 6.66732 10.9006Z" stroke="#121212" stroke-width="2" stroke-linecap="round" stroke-linejoin="round"/>
</svg>
