<svg width="400" height="83" viewBox="0 0 400 83" fill="none" xmlns="http://www.w3.org/2000/svg">
<path d="M99.7149 58.3637C92.0713 58.3637 86.7165 53.8942 86.3926 48.237H94.1657C94.4464 50.5474 96.5841 52.3179 99.6717 52.3179C102.695 52.3179 104.357 50.9361 104.357 49.1871C104.357 43.7459 87.1267 47.2006 87.1267 36.0375C87.1267 30.9634 91.6395 26.9041 99.1751 26.9041C106.56 26.9041 111.008 30.9202 111.461 36.9876H104.055C103.839 34.6124 101.961 33.0146 98.9376 33.0146C96.0659 33.0146 94.5976 34.1806 94.5976 35.9295C94.5976 41.5003 111.504 38.024 111.72 49.2087C111.699 54.3908 107.143 58.3637 99.7149 58.3637Z" fill="#0A5076"/>
<path d="M131.152 26.8608C138.753 26.8608 143.87 30.8338 145.533 37.6569H137.22C136.335 35.0658 134.305 33.4248 131.109 33.4248C126.812 33.4248 123.941 36.6637 123.941 42.6231C123.941 48.5609 126.812 51.7565 131.109 51.7565C134.305 51.7565 136.291 50.3315 137.22 47.5677H145.533C143.87 54.0669 138.753 58.3637 131.152 58.3637C122.343 58.3637 116.06 52.1884 116.06 42.6231C116.06 33.0362 122.343 26.8608 131.152 26.8608Z" fill="#0A5076"/>
<path d="M151.191 17.1228H158.899V31.1577C160.885 28.5666 164.297 26.9256 168.378 26.9256C175.266 26.9256 180.275 31.5463 180.275 39.9672V57.8671H172.545V41.0252C172.545 36.1238 169.846 33.4896 165.765 33.4896C161.576 33.4896 158.877 36.1238 158.877 41.0252V57.8671H151.169V17.1228H151.191Z" fill="#0A5076"/>
<path d="M201.132 58.3637C192.322 58.3637 185.65 52.1884 185.65 42.6231C185.65 32.993 192.538 26.8824 201.348 26.8824C210.157 26.8824 217.045 32.993 217.045 42.6231C217.045 52.1884 209.985 58.3637 201.132 58.3637ZM201.132 51.6486C205.213 51.6486 209.121 48.6689 209.121 42.6231C209.121 36.5125 205.321 33.5976 201.24 33.5976C197.159 33.5976 193.467 36.5125 193.467 42.6231C193.467 48.6689 196.986 51.6486 201.132 51.6486Z" fill="#0A5076"/>
<path d="M236.242 58.3637C227.433 58.3637 220.761 52.1884 220.761 42.6231C220.761 32.993 227.649 26.8824 236.458 26.8824C245.267 26.8824 252.155 32.993 252.155 42.6231C252.155 52.1884 245.116 58.3637 236.242 58.3637ZM236.242 51.6486C240.323 51.6486 244.231 48.6689 244.231 42.6231C244.231 36.5125 240.431 33.5976 236.35 33.5976C232.269 33.5976 228.577 36.5125 228.577 42.6231C228.599 48.6689 232.118 51.6486 236.242 51.6486Z" fill="#0A5076"/>
<path d="M257.834 17.1228H265.542V57.8671H257.834V17.1228Z" fill="#0A5076"/>
<path d="M285.082 26.8608C289.876 26.8608 293.352 29.0632 295.166 31.6975V27.3575H302.939V58.083C302.939 66.3528 297.865 72.8952 287.846 72.8952C279.252 72.8952 273.25 68.5984 272.494 61.6025H280.138C280.915 64.3663 283.765 66.1801 287.63 66.1801C291.862 66.1801 295.166 63.7617 295.166 58.083V53.3544C293.352 55.9886 289.876 58.3637 285.082 58.3637C277.309 58.3637 271.155 52.0372 271.155 42.5151C271.155 32.9714 277.331 26.8608 285.082 26.8608ZM287.069 33.6408C282.945 33.6408 279.036 36.7284 279.036 42.5151C279.036 48.3018 282.945 51.6054 287.069 51.6054C291.301 51.6054 295.166 48.4098 295.166 42.6231C295.166 36.8364 291.301 33.6408 287.069 33.6408Z" fill="#0A5076"/>
<path d="M322.416 26.8608C327.318 26.8608 330.686 29.1712 332.5 31.6975V27.3575H340.273V57.8671H332.5V53.3975C330.686 56.0318 327.21 58.3637 322.373 58.3637C314.665 58.3637 308.489 52.0372 308.489 42.5151C308.489 32.9714 314.665 26.8608 322.416 26.8608ZM324.403 33.6408C320.279 33.6408 316.37 36.7284 316.37 42.5151C316.37 48.3018 320.279 51.6054 324.403 51.6054C328.635 51.6054 332.5 48.4098 332.5 42.6231C332.5 36.8364 328.635 33.6408 324.403 33.6408Z" fill="#0A5076"/>
<path d="M349.017 33.7056H345.39V27.3791H349.017V19.8219H356.79V27.3575H363.613V33.684H356.79V48.4314C356.79 50.4611 357.611 51.3464 360.029 51.3464H363.613V57.8672H358.777C352.947 57.8672 349.039 55.3841 349.039 48.3882V33.7056H349.017Z" fill="#0A5076"/>
<path d="M382.485 58.3637C373.61 58.3637 367.176 52.1884 367.176 42.6231C367.176 32.993 373.459 26.8824 382.485 26.8824C391.294 26.8824 397.513 32.885 397.513 41.9753C397.513 42.9686 397.448 43.9618 397.297 44.955H374.992C375.381 49.4678 378.468 51.994 382.312 51.994C385.615 51.994 387.429 50.3315 388.422 48.3018H396.735C395.094 53.8942 390.042 58.3637 382.485 58.3637ZM375.057 39.7513H389.545C389.437 35.7352 386.242 33.2089 382.269 33.2089C378.576 33.2089 375.661 35.5625 375.057 39.7513Z" fill="#0A5076"/>
<path d="M74.9027 16.4099C74.8811 16.4747 74.8596 16.5395 74.838 16.6042C74.838 16.7554 74.7732 16.7986 74.6436 16.8202C73.9959 16.9713 73.3697 17.1872 72.8083 17.5543C71.7935 18.2236 71.2968 19.1953 71.1025 20.3613C70.9298 21.4193 71.0377 22.4557 71.0593 23.5137C71.1025 24.8524 71.1025 26.1911 71.1241 27.5298C71.1457 29.4083 71.1025 31.2868 71.1673 33.1438C71.1889 33.8131 71.5128 34.4825 71.6855 35.1734C71.8367 35.7996 72.031 36.4474 72.0958 37.0951C72.2037 37.9156 71.9878 38.7145 71.5991 39.4702C71.556 39.5566 71.4048 39.6646 71.2969 39.6646C70.7355 39.7078 70.1957 39.643 69.6774 39.4487C69.224 39.2543 69.1161 38.8441 69.1161 38.4338C69.1161 37.8292 69.1808 37.2031 69.2672 36.6201C69.3104 36.3826 69.4183 36.1451 69.5695 35.9507C70.0229 35.3677 70.1525 34.72 70.1309 34.0074C70.1093 33.1869 70.1309 32.388 70.1309 31.5675C70.1309 28.9333 70.1525 26.2991 70.1525 23.6648C70.1525 22.1318 70.1309 20.5988 70.1309 19.0873C70.1309 19.001 70.1309 18.9362 70.1093 18.8282C69.9581 18.8714 69.8286 18.9146 69.699 18.9794C67.6046 19.7783 65.5318 20.5988 63.4157 21.3545C62.4441 21.7 62.0986 22.3909 62.0122 23.2762C61.9259 24.2694 61.9043 25.2627 61.9043 26.2559C61.8827 27.7242 61.9043 29.1924 61.9043 30.6607C61.9043 30.7686 61.9043 30.8766 61.9043 31.0277C48.2581 24.5501 34.6335 24.5717 20.9872 31.0062C20.9657 30.8982 20.9657 30.8334 20.9657 30.7686C20.9657 28.8685 20.9441 26.9468 20.9441 25.0467C20.9441 24.4422 20.9872 23.8376 20.9441 23.233C20.8793 22.4341 20.469 21.8295 19.7565 21.4625C19.1303 21.1602 18.461 20.9227 17.7916 20.6851C14.3585 19.368 10.9253 18.0725 7.47059 16.7554C7.4274 16.7338 7.38422 16.7338 7.29785 16.6906C7.4274 16.6258 7.49218 16.6042 7.57855 16.561C13.2141 14.1211 18.9792 12.0267 24.7011 9.82432C29.5593 7.9674 34.4391 6.15367 39.2973 4.31834C40.0531 4.03765 40.8304 3.84332 41.6293 3.8865C42.0611 3.90809 42.5362 3.97287 42.9464 4.12401C47.8262 5.95934 52.7061 7.79467 57.5859 9.65159C63.1782 11.7892 68.749 13.9268 74.3197 16.086C74.5141 16.1508 74.6868 16.3019 74.8596 16.4099C74.9027 16.3667 74.9027 16.3883 74.9027 16.4099Z" fill="#0A5076"/>
<path d="M41.1764 81.4019C40.8525 80.9269 40.5502 80.4735 40.2479 80.0201C37.2898 75.6369 34.3317 71.2321 31.3736 66.8489C31.2224 66.633 31.0281 66.4602 30.8553 66.2659C30.5099 65.8772 30.186 65.4454 29.8189 65.0783C29.2143 64.4522 28.5882 63.826 27.962 63.1998C26.8824 62.1418 25.8028 61.1054 24.7232 60.069C24.5073 59.8746 24.2266 59.7235 23.9891 59.5507C23.9027 59.486 23.7947 59.4644 23.7299 59.3996C22.1753 58.2552 20.5775 57.1756 19.0445 55.9665C18.0728 55.2107 17.1659 54.3471 16.4318 53.3322C15.892 52.5549 15.8488 51.6912 16.1511 50.8275C16.5182 49.7263 16.9284 48.6467 17.3603 47.5671C18.5694 44.5011 19.8002 41.4566 21.0309 38.3905C21.3332 37.6564 21.6355 36.9438 21.9594 36.2313C22.3265 35.4324 22.8447 34.763 23.4924 34.18C24.0322 33.705 24.68 33.4459 25.3494 33.2516C29.128 32.1936 32.9066 31.1355 36.7068 30.0991C37.3546 29.9264 37.9807 29.7537 38.6717 29.5593C38.6285 29.84 38.6069 30.0991 38.5637 30.3366C38.0023 33.6618 37.4841 36.987 36.9011 40.2906C36.4477 42.8169 35.9295 45.3216 35.4545 47.8478C35.2601 48.8843 35.0442 49.9207 34.8715 50.9787C34.7635 51.648 34.9578 52.2958 35.4113 52.814C36.6204 54.1959 37.8296 55.5346 39.0387 56.8949C39.6217 57.5427 40.2047 58.1904 40.7877 58.8382C40.8309 58.903 40.8741 58.9678 40.9604 59.0325C41.09 58.8814 41.198 58.7734 41.2843 58.6439C43.1628 56.3767 45.0414 54.1095 46.9199 51.8424C47.0062 51.7344 47.0494 51.5617 47.0278 51.4321C46.6608 49.2729 46.2937 47.1137 45.905 44.9329C45.4732 42.493 45.0629 40.0747 44.6311 37.6348C44.264 35.4972 43.897 33.3595 43.5299 31.2219C43.4867 30.9412 43.4219 30.6605 43.3788 30.3366C43.8754 30.3582 44.3504 30.3582 44.8254 30.4014C46.2073 30.5526 47.5892 30.6821 48.9495 30.9196C52.2099 31.4594 55.3408 32.4527 58.3421 33.8562C58.9683 34.1584 59.4217 34.6551 59.6808 35.3028C61.1707 38.9519 62.6389 42.6225 64.1072 46.2716C64.2583 46.6603 64.4095 47.0921 64.5822 47.4808C64.8629 48.0422 64.8845 48.6467 64.7981 49.2513C64.7549 49.4888 64.8413 49.64 65.014 49.8127C65.4027 50.223 65.813 50.6116 66.1152 51.0651C66.6982 51.8856 66.5903 52.6629 65.9209 53.397C65.7698 53.5481 65.6186 53.6993 65.4459 53.8288C64.8629 54.3471 64.2799 54.8653 63.6969 55.4051C63.1571 55.9017 62.5957 56.2687 61.8184 56.1176C61.6025 56.0744 61.3866 56.0096 61.1275 55.9233C61.0411 56.096 60.9331 56.3119 60.8468 56.5063C60.7388 56.7654 60.6309 57.0029 60.5013 57.262C60.2638 57.7586 59.9615 58.1904 59.5512 58.5791C55.8158 62.0338 52.2099 65.6397 48.9711 69.5911C46.013 73.1969 43.3788 77.0188 41.2627 81.1644C41.2627 81.2508 41.2195 81.294 41.1764 81.4019Z" fill="#0A5076"/>
</svg>
