<svg width="1512" height="1227" viewBox="0 0 1512 1227" fill="none" xmlns="http://www.w3.org/2000/svg">
<rect width="1512" height="1227" fill="white"/>
<path d="M1512 0H0V1227H1512V0Z" fill="white"/>
<path d="M693.534 313.264C692.405 313.264 691.422 313.059 690.586 312.648C689.75 312.237 689.105 311.665 688.65 310.932C688.195 310.199 687.968 309.348 687.968 308.38H689.904C689.904 308.981 690.043 309.539 690.322 310.052C690.601 310.551 691.004 310.954 691.532 311.262C692.075 311.555 692.742 311.702 693.534 311.702C694.575 311.702 695.382 311.453 695.954 310.954C696.526 310.455 696.812 309.832 696.812 309.084C696.812 308.468 696.68 307.977 696.416 307.61C696.152 307.229 695.793 306.921 695.338 306.686C694.898 306.451 694.385 306.246 693.798 306.07C693.226 305.894 692.625 305.696 691.994 305.476C690.806 305.065 689.926 304.559 689.354 303.958C688.782 303.342 688.496 302.543 688.496 301.56C688.481 300.739 688.672 300.013 689.068 299.382C689.464 298.737 690.021 298.238 690.74 297.886C691.473 297.519 692.339 297.336 693.336 297.336C694.319 297.336 695.169 297.519 695.888 297.886C696.621 298.253 697.186 298.759 697.582 299.404C697.993 300.049 698.205 300.783 698.22 301.604H696.284C696.284 301.179 696.174 300.761 695.954 300.35C695.734 299.925 695.397 299.58 694.942 299.316C694.502 299.052 693.945 298.92 693.27 298.92C692.434 298.905 691.745 299.118 691.202 299.558C690.674 299.998 690.41 300.607 690.41 301.384C690.41 302.044 690.593 302.55 690.96 302.902C691.341 303.254 691.869 303.547 692.544 303.782C693.219 304.002 693.996 304.259 694.876 304.552C695.609 304.816 696.269 305.124 696.856 305.476C697.443 305.828 697.897 306.283 698.22 306.84C698.557 307.397 698.726 308.109 698.726 308.974C698.726 309.707 698.535 310.404 698.154 311.064C697.773 311.709 697.193 312.237 696.416 312.648C695.653 313.059 694.693 313.264 693.534 313.264ZM701.347 313V297.6H710.873V299.118H703.195V304.486H710.213V305.982H703.195V311.482H710.873V313H701.347ZM720.519 313.264C719.008 313.264 717.703 312.934 716.603 312.274C715.517 311.599 714.674 310.668 714.073 309.48C713.471 308.277 713.171 306.884 713.171 305.3C713.171 303.731 713.471 302.352 714.073 301.164C714.674 299.961 715.517 299.023 716.603 298.348C717.703 297.673 719.008 297.336 720.519 297.336C722.279 297.336 723.709 297.761 724.809 298.612C725.923 299.448 726.635 300.621 726.943 302.132H724.897C724.662 301.179 724.178 300.416 723.445 299.844C722.726 299.257 721.751 298.964 720.519 298.964C719.419 298.964 718.458 299.221 717.637 299.734C716.815 300.233 716.177 300.959 715.723 301.912C715.283 302.851 715.063 303.98 715.063 305.3C715.063 306.62 715.283 307.757 715.723 308.71C716.177 309.649 716.815 310.375 717.637 310.888C718.458 311.387 719.419 311.636 720.519 311.636C721.751 311.636 722.726 311.357 723.445 310.8C724.178 310.228 724.662 309.473 724.897 308.534H726.943C726.635 310.015 725.923 311.174 724.809 312.01C723.709 312.846 722.279 313.264 720.519 313.264ZM736.595 313.264C735.084 313.264 733.757 312.934 732.613 312.274C731.483 311.599 730.596 310.661 729.951 309.458C729.32 308.255 729.005 306.869 729.005 305.3C729.005 303.731 729.32 302.352 729.951 301.164C730.596 299.961 731.483 299.023 732.613 298.348C733.757 297.673 735.084 297.336 736.595 297.336C738.12 297.336 739.447 297.673 740.577 298.348C741.721 299.023 742.608 299.961 743.239 301.164C743.869 302.352 744.185 303.731 744.185 305.3C744.185 306.869 743.869 308.255 743.239 309.458C742.608 310.661 741.721 311.599 740.577 312.274C739.447 312.934 738.12 313.264 736.595 313.264ZM736.595 311.636C737.724 311.636 738.714 311.387 739.565 310.888C740.43 310.375 741.097 309.649 741.567 308.71C742.051 307.757 742.293 306.62 742.293 305.3C742.293 303.98 742.051 302.851 741.567 301.912C741.097 300.973 740.43 300.255 739.565 299.756C738.714 299.243 737.724 298.986 736.595 298.986C735.465 298.986 734.468 299.243 733.603 299.756C732.752 300.255 732.085 300.973 731.601 301.912C731.131 302.851 730.897 303.98 730.897 305.3C730.897 306.62 731.131 307.757 731.601 308.71C732.085 309.649 732.752 310.375 733.603 310.888C734.468 311.387 735.465 311.636 736.595 311.636ZM746.851 313V297.6H748.699L756.905 309.942V297.6H758.753V313H756.905L748.699 300.658V313H746.851ZM762.019 313V297.6H766.749C769.462 297.6 771.457 298.289 772.733 299.668C774.023 301.047 774.669 302.939 774.669 305.344C774.669 307.705 774.023 309.575 772.733 310.954C771.457 312.318 769.462 313 766.749 313H762.019ZM763.867 311.46H766.705C768.201 311.46 769.389 311.218 770.269 310.734C771.163 310.235 771.801 309.531 772.183 308.622C772.564 307.698 772.755 306.605 772.755 305.344C772.755 304.053 772.564 302.946 772.183 302.022C771.801 301.098 771.163 300.387 770.269 299.888C769.389 299.389 768.201 299.14 766.705 299.14H763.867V311.46ZM775.273 313L780.949 297.6H782.907L788.561 313H786.603L785.195 309.04H778.639L777.209 313H775.273ZM779.189 307.544H784.645L781.917 299.932L779.189 307.544ZM790.851 313V297.6H795.823C797.025 297.6 798.008 297.798 798.771 298.194C799.533 298.59 800.098 299.133 800.465 299.822C800.831 300.511 801.015 301.274 801.015 302.11C801.015 303.078 800.751 303.951 800.223 304.728C799.709 305.505 798.903 306.055 797.803 306.378L801.169 313H798.991L795.867 306.642H795.735H792.699V313H790.851ZM792.699 305.19H795.691C796.879 305.19 797.744 304.904 798.287 304.332C798.829 303.76 799.101 303.027 799.101 302.132C799.101 301.223 798.829 300.504 798.287 299.976C797.759 299.433 796.886 299.162 795.669 299.162H792.699V305.19ZM807.075 313V307.148L802.059 297.6H804.149L807.999 305.388L811.849 297.6H813.917L808.923 307.148V313H807.075ZM828.564 313.264C827.053 313.264 825.748 312.934 824.648 312.274C823.562 311.599 822.719 310.668 822.118 309.48C821.516 308.277 821.216 306.884 821.216 305.3C821.216 303.731 821.516 302.352 822.118 301.164C822.719 299.961 823.562 299.023 824.648 298.348C825.748 297.673 827.053 297.336 828.564 297.336C830.324 297.336 831.754 297.761 832.854 298.612C833.968 299.448 834.68 300.621 834.988 302.132H832.942C832.707 301.179 832.223 300.416 831.49 299.844C830.771 299.257 829.796 298.964 828.564 298.964C827.464 298.964 826.503 299.221 825.682 299.734C824.86 300.233 824.222 300.959 823.768 301.912C823.328 302.851 823.108 303.98 823.108 305.3C823.108 306.62 823.328 307.757 823.768 308.71C824.222 309.649 824.86 310.375 825.682 310.888C826.503 311.387 827.464 311.636 828.564 311.636C829.796 311.636 830.771 311.357 831.49 310.8C832.223 310.228 832.707 309.473 832.942 308.534H834.988C834.68 310.015 833.968 311.174 832.854 312.01C831.754 312.846 830.324 313.264 828.564 313.264ZM844.64 313.264C843.129 313.264 841.802 312.934 840.658 312.274C839.528 311.599 838.641 310.661 837.996 309.458C837.365 308.255 837.05 306.869 837.05 305.3C837.05 303.731 837.365 302.352 837.996 301.164C838.641 299.961 839.528 299.023 840.658 298.348C841.802 297.673 843.129 297.336 844.64 297.336C846.165 297.336 847.492 297.673 848.622 298.348C849.766 299.023 850.653 299.961 851.284 301.164C851.914 302.352 852.23 303.731 852.23 305.3C852.23 306.869 851.914 308.255 851.284 309.458C850.653 310.661 849.766 311.599 848.622 312.274C847.492 312.934 846.165 313.264 844.64 313.264ZM844.64 311.636C845.769 311.636 846.759 311.387 847.61 310.888C848.475 310.375 849.142 309.649 849.612 308.71C850.096 307.757 850.338 306.62 850.338 305.3C850.338 303.98 850.096 302.851 849.612 301.912C849.142 300.973 848.475 300.255 847.61 299.756C846.759 299.243 845.769 298.986 844.64 298.986C843.51 298.986 842.513 299.243 841.648 299.756C840.797 300.255 840.13 300.973 839.646 301.912C839.176 302.851 838.942 303.98 838.942 305.3C838.942 306.62 839.176 307.757 839.646 308.71C840.13 309.649 840.797 310.375 841.648 310.888C842.513 311.387 843.51 311.636 844.64 311.636ZM854.896 313V297.6H856.744V311.526H863.916V313H854.896ZM872.011 313.264C870.5 313.264 869.173 312.934 868.029 312.274C866.899 311.599 866.012 310.661 865.367 309.458C864.736 308.255 864.421 306.869 864.421 305.3C864.421 303.731 864.736 302.352 865.367 301.164C866.012 299.961 866.899 299.023 868.029 298.348C869.173 297.673 870.5 297.336 872.011 297.336C873.536 297.336 874.863 297.673 875.993 298.348C877.137 299.023 878.024 299.961 878.655 301.164C879.285 302.352 879.601 303.731 879.601 305.3C879.601 306.869 879.285 308.255 878.655 309.458C878.024 310.661 877.137 311.599 875.993 312.274C874.863 312.934 873.536 313.264 872.011 313.264ZM872.011 311.636C873.14 311.636 874.13 311.387 874.981 310.888C875.846 310.375 876.513 309.649 876.983 308.71C877.467 307.757 877.709 306.62 877.709 305.3C877.709 303.98 877.467 302.851 876.983 301.912C876.513 300.973 875.846 300.255 874.981 299.756C874.13 299.243 873.14 298.986 872.011 298.986C870.881 298.986 869.884 299.243 869.019 299.756C868.168 300.255 867.501 300.973 867.017 301.912C866.547 302.851 866.313 303.98 866.313 305.3C866.313 306.62 866.547 307.757 867.017 308.71C867.501 309.649 868.168 310.375 869.019 310.888C869.884 311.387 870.881 311.636 872.011 311.636ZM882.267 313V297.6H887.239C888.441 297.6 889.424 297.798 890.187 298.194C890.949 298.59 891.514 299.133 891.881 299.822C892.247 300.511 892.431 301.274 892.431 302.11C892.431 303.078 892.167 303.951 891.639 304.728C891.125 305.505 890.319 306.055 889.219 306.378L892.585 313H890.407L887.283 306.642H887.151H884.115V313H882.267ZM884.115 305.19H887.107C888.295 305.19 889.16 304.904 889.703 304.332C890.245 303.76 890.517 303.027 890.517 302.132C890.517 301.223 890.245 300.504 889.703 299.976C889.175 299.433 888.302 299.162 887.085 299.162H884.115V305.19Z" fill="#070707"/>
<path d="M786 345H690V433H786V345Z" fill="#F5C800"/>
<path d="M891 345H796V433H891V345Z" fill="#E14943"/>
<path d="M945.867 313.252C944.859 313.252 943.942 313.056 943.116 312.664C942.304 312.258 941.653 311.635 941.163 310.795C940.673 309.955 940.428 308.884 940.428 307.582V298.3H942.192V307.603C942.192 309.031 942.535 310.067 943.221 310.711C943.907 311.355 944.803 311.677 945.909 311.677C947.015 311.677 947.904 311.355 948.576 310.711C949.248 310.067 949.584 309.031 949.584 307.603V298.3H951.348V307.582C951.348 308.884 951.103 309.955 950.613 310.795C950.123 311.635 949.465 312.258 948.639 312.664C947.813 313.056 946.889 313.252 945.867 313.252ZM954.335 313V298.3H956.099L963.932 310.081V298.3H965.696V313H963.932L956.099 301.219V313H954.335ZM968.814 313V298.3H970.578V313H968.814ZM978.126 313L972.603 298.3H974.514L979.155 311.131L983.838 298.3H985.707L980.184 313H978.126ZM987.722 313V298.3H996.815V299.749H989.486V304.873H996.185V306.301H989.486V311.551H996.815V313H987.722ZM999.575 313V298.3H1004.32C1005.47 298.3 1006.41 298.489 1007.14 298.867C1007.86 299.245 1008.4 299.763 1008.75 300.421C1009.1 301.079 1009.28 301.807 1009.28 302.605C1009.28 303.529 1009.03 304.362 1008.52 305.104C1008.03 305.846 1007.26 306.371 1006.21 306.679L1009.42 313H1007.35L1004.36 306.931H1004.24H1001.34V313H999.575ZM1001.34 305.545H1004.2C1005.33 305.545 1006.16 305.272 1006.67 304.726C1007.19 304.18 1007.45 303.48 1007.45 302.626C1007.45 301.758 1007.19 301.072 1006.67 300.568C1006.17 300.05 1005.34 299.791 1004.17 299.791H1001.34V305.545ZM1016.71 313.252C1015.63 313.252 1014.69 313.056 1013.89 312.664C1013.09 312.272 1012.48 311.726 1012.04 311.026C1011.61 310.326 1011.39 309.514 1011.39 308.59H1013.24C1013.24 309.164 1013.37 309.696 1013.64 310.186C1013.91 310.662 1014.29 311.047 1014.8 311.341C1015.31 311.621 1015.95 311.761 1016.71 311.761C1017.7 311.761 1018.47 311.523 1019.02 311.047C1019.56 310.571 1019.84 309.976 1019.84 309.262C1019.84 308.674 1019.71 308.205 1019.46 307.855C1019.21 307.491 1018.86 307.197 1018.43 306.973C1018.01 306.749 1017.52 306.553 1016.96 306.385C1016.41 306.217 1015.84 306.028 1015.24 305.818C1014.1 305.426 1013.26 304.943 1012.72 304.369C1012.17 303.781 1011.9 303.018 1011.9 302.08C1011.88 301.296 1012.07 300.603 1012.44 300.001C1012.82 299.385 1013.35 298.909 1014.04 298.573C1014.74 298.223 1015.57 298.048 1016.52 298.048C1017.46 298.048 1018.27 298.223 1018.95 298.573C1019.65 298.923 1020.19 299.406 1020.57 300.022C1020.96 300.638 1021.17 301.338 1021.18 302.122H1019.33C1019.33 301.716 1019.23 301.317 1019.02 300.925C1018.81 300.519 1018.48 300.19 1018.05 299.938C1017.63 299.686 1017.1 299.56 1016.45 299.56C1015.66 299.546 1015 299.749 1014.48 300.169C1013.98 300.589 1013.72 301.17 1013.72 301.912C1013.72 302.542 1013.9 303.025 1014.25 303.361C1014.61 303.697 1015.12 303.977 1015.76 304.201C1016.41 304.411 1017.15 304.656 1017.99 304.936C1018.69 305.188 1019.32 305.482 1019.88 305.818C1020.44 306.154 1020.87 306.588 1021.18 307.12C1021.5 307.652 1021.66 308.331 1021.66 309.157C1021.66 309.857 1021.48 310.522 1021.12 311.152C1020.75 311.768 1020.2 312.272 1019.46 312.664C1018.73 313.056 1017.81 313.252 1016.71 313.252ZM1023.24 313L1028.66 298.3H1030.53L1035.92 313H1034.06L1032.71 309.22H1026.45L1025.09 313H1023.24ZM1026.98 307.792H1032.19L1029.58 300.526L1026.98 307.792ZM1038.11 313V298.3H1039.87V311.593H1046.72V313H1038.11ZM1061.15 313.252C1059.71 313.252 1058.46 312.937 1057.41 312.307C1056.37 311.663 1055.57 310.774 1054.99 309.64C1054.42 308.492 1054.13 307.162 1054.13 305.65C1054.13 304.152 1054.42 302.836 1054.99 301.702C1055.57 300.554 1056.37 299.658 1057.41 299.014C1058.46 298.37 1059.71 298.048 1061.15 298.048C1062.83 298.048 1064.19 298.454 1065.24 299.266C1066.31 300.064 1066.99 301.184 1067.28 302.626H1065.33C1065.1 301.716 1064.64 300.988 1063.94 300.442C1063.25 299.882 1062.32 299.602 1061.15 299.602C1060.1 299.602 1059.18 299.847 1058.4 300.337C1057.61 300.813 1057 301.506 1056.57 302.416C1056.15 303.312 1055.94 304.39 1055.94 305.65C1055.94 306.91 1056.15 307.995 1056.57 308.905C1057 309.801 1057.61 310.494 1058.4 310.984C1059.18 311.46 1060.1 311.698 1061.15 311.698C1062.32 311.698 1063.25 311.432 1063.94 310.9C1064.64 310.354 1065.1 309.633 1065.33 308.737H1067.28C1066.99 310.151 1066.31 311.257 1065.24 312.055C1064.19 312.853 1062.83 313.252 1061.15 313.252ZM1076.49 313.252C1075.05 313.252 1073.78 312.937 1072.69 312.307C1071.61 311.663 1070.77 310.767 1070.15 309.619C1069.55 308.471 1069.25 307.148 1069.25 305.65C1069.25 304.152 1069.55 302.836 1070.15 301.702C1070.77 300.554 1071.61 299.658 1072.69 299.014C1073.78 298.37 1075.05 298.048 1076.49 298.048C1077.95 298.048 1079.22 298.37 1080.29 299.014C1081.39 299.658 1082.23 300.554 1082.83 301.702C1083.44 302.836 1083.74 304.152 1083.74 305.65C1083.74 307.148 1083.44 308.471 1082.83 309.619C1082.23 310.767 1081.39 311.663 1080.29 312.307C1079.22 312.937 1077.95 313.252 1076.49 313.252ZM1076.49 311.698C1077.57 311.698 1078.52 311.46 1079.33 310.984C1080.15 310.494 1080.79 309.801 1081.24 308.905C1081.7 307.995 1081.93 306.91 1081.93 305.65C1081.93 304.39 1081.7 303.312 1081.24 302.416C1080.79 301.52 1080.15 300.834 1079.33 300.358C1078.52 299.868 1077.57 299.623 1076.49 299.623C1075.41 299.623 1074.46 299.868 1073.64 300.358C1072.82 300.834 1072.19 301.52 1071.73 302.416C1071.28 303.312 1071.05 304.39 1071.05 305.65C1071.05 306.91 1071.28 307.995 1071.73 308.905C1072.19 309.801 1072.82 310.494 1073.64 310.984C1074.46 311.46 1075.41 311.698 1076.49 311.698ZM1086.28 313V298.3H1088.05V311.593H1094.89V313H1086.28ZM1102.62 313.252C1101.18 313.252 1099.91 312.937 1098.82 312.307C1097.74 311.663 1096.89 310.767 1096.28 309.619C1095.68 308.471 1095.37 307.148 1095.37 305.65C1095.37 304.152 1095.68 302.836 1096.28 301.702C1096.89 300.554 1097.74 299.658 1098.82 299.014C1099.91 298.37 1101.18 298.048 1102.62 298.048C1104.08 298.048 1105.34 298.37 1106.42 299.014C1107.51 299.658 1108.36 300.554 1108.96 301.702C1109.56 302.836 1109.86 304.152 1109.86 305.65C1109.86 307.148 1109.56 308.471 1108.96 309.619C1108.36 310.767 1107.51 311.663 1106.42 312.307C1105.34 312.937 1104.08 313.252 1102.62 313.252ZM1102.62 311.698C1103.7 311.698 1104.64 311.46 1105.45 310.984C1106.28 310.494 1106.92 309.801 1107.37 308.905C1107.83 307.995 1108.06 306.91 1108.06 305.65C1108.06 304.39 1107.83 303.312 1107.37 302.416C1106.92 301.52 1106.28 300.834 1105.45 300.358C1104.64 299.868 1103.7 299.623 1102.62 299.623C1101.54 299.623 1100.59 299.868 1099.76 300.358C1098.95 300.834 1098.31 301.52 1097.85 302.416C1097.4 303.312 1097.18 304.39 1097.18 305.65C1097.18 306.91 1097.4 307.995 1097.85 308.905C1098.31 309.801 1098.95 310.494 1099.76 310.984C1100.59 311.46 1101.54 311.698 1102.62 311.698ZM1112.41 313V298.3H1117.16C1118.3 298.3 1119.24 298.489 1119.97 298.867C1120.7 299.245 1121.24 299.763 1121.59 300.421C1121.94 301.079 1122.11 301.807 1122.11 302.605C1122.11 303.529 1121.86 304.362 1121.36 305.104C1120.87 305.846 1120.1 306.371 1119.05 306.679L1122.26 313H1120.18L1117.2 306.931H1117.07H1114.17V313H1112.41ZM1114.17 305.545H1117.03C1118.16 305.545 1118.99 305.272 1119.51 304.726C1120.03 304.18 1120.28 303.48 1120.28 302.626C1120.28 301.758 1120.03 301.072 1119.51 300.568C1119 300.05 1118.17 299.791 1117.01 299.791H1114.17V305.545Z" fill="#070707"/>
<path d="M1036 345H939V433H1036V345Z" fill="black"/>
<path d="M1143 345H1046V433H1143V345Z" fill="#B1B1B1"/>
<path d="M1248 345H1153V433H1248V345Z" fill="white"/>
<path d="M1247.5 345.5H1153.5V432.5H1247.5V345.5Z" stroke="#707070"/>
<path d="M1253.03 572H232.973C221.39 572 212 583.615 212 597.943V1046.06C212 1060.38 221.39 1072 232.973 1072H1253.03C1264.61 1072 1274 1060.38 1274 1046.06V597.943C1274 583.615 1264.61 572 1253.03 572Z" fill="#0A5076"/>
<path opacity="0.1" d="M655.513 776.649C649.609 778.561 643.724 785.338 641.006 791.323C632.036 811.1 624.637 831.592 616.404 851.71C605.566 878.222 605.473 878.185 625.399 896.497L624.952 896.069C632.618 901.569 640.291 907.073 647.969 912.581C648.907 913.363 649.838 914.145 650.775 914.928C651.731 915.368 652.69 915.813 653.654 916.262C654.25 916.785 654.846 917.305 655.441 917.82C656.349 918.72 657.259 919.614 658.173 920.502C659.017 921.352 659.861 922.196 660.706 923.047L663.337 925.865C669.173 931.278 675 936.691 680.82 942.103C682.397 944.177 683.971 946.248 685.544 948.317C687.146 949.962 688.751 951.602 690.36 953.237C707.914 979.322 725.519 1005.47 743.175 1031.69C767.554 983.75 803.158 945.357 841.986 909.495C845.562 906.194 847.063 900.644 849.528 896.143C859.938 901.053 880.38 872.536 868.883 862.517C868.821 859.513 869.597 856.198 868.573 853.572C859.727 830.913 850.649 808.349 841.34 785.879C839.93 782.775 837.497 780.249 834.449 778.722C809.824 767.387 783.975 761.118 754.682 760.05C761.604 799.936 768.308 838.575 774.36 873.486C763.727 886.335 754.074 897.999 742.05 912.53C730.635 899.905 721.175 889.842 712.285 879.296C710.317 876.955 709.15 872.709 709.671 869.692C712.607 852.715 716.407 835.886 719.467 818.934C722.968 799.514 726.01 780.019 730.04 755.807C702.56 763.3 678.744 769.079 655.513 776.646L655.513 776.649ZM733.237 621.511C687.122 638.656 641.191 656.31 595.244 673.927C585.523 677.652 575.981 681.873 563 687.255C586.328 696.157 605.683 703.928 625.336 710.862C633.232 713.649 636.28 718.057 635.944 726.244C635.479 737.753 635.827 749.293 635.827 763.521C709.876 728.846 781.324 729.435 853.716 763.57C853.716 749.107 853.369 736.94 853.915 724.817C854.088 720.937 855.597 714.947 858.254 713.712C869.937 708.28 882.271 704.245 897.193 698.633C897.193 729.535 897.367 756.494 896.97 783.459C896.92 786.842 892.954 790.045 892.345 793.589C891.575 798.096 890.775 804.012 893.022 807.159C894.766 809.604 904.103 810.443 904.909 809.027C907.299 804.887 908.224 799.138 907.659 794.259C906.84 787.233 902.896 780.473 902.594 773.502C901.83 756.089 903.395 738.547 902.085 721.197C900.843 704.629 903.394 691.96 922.005 688.024C922.291 687.962 922.291 686.553 922.439 685.758C921.769 685.224 921.173 684.473 920.409 684.181C864.314 662.636 808.277 640.922 751.958 619.959C750.017 619.288 747.972 618.964 745.918 619.003C741.666 619.003 737.029 620.102 733.237 621.511Z" stroke="white" stroke-width="1.99404"/>
<path d="M238.628 313V297.6H243.688C244.891 297.6 245.881 297.798 246.658 298.194C247.435 298.59 248.007 299.125 248.374 299.8C248.755 300.475 248.946 301.237 248.946 302.088C248.946 302.924 248.763 303.679 248.396 304.354C248.029 305.029 247.457 305.571 246.68 305.982C245.903 306.378 244.905 306.576 243.688 306.576H240.476V313H238.628ZM240.476 305.014H243.644C244.876 305.014 245.749 304.757 246.262 304.244C246.79 303.716 247.054 302.997 247.054 302.088C247.054 301.164 246.79 300.445 246.262 299.932C245.749 299.404 244.876 299.14 243.644 299.14H240.476V305.014ZM251.368 313V297.6H256.34C257.543 297.6 258.526 297.798 259.288 298.194C260.051 298.59 260.616 299.133 260.982 299.822C261.349 300.511 261.532 301.274 261.532 302.11C261.532 303.078 261.268 303.951 260.74 304.728C260.227 305.505 259.42 306.055 258.32 306.378L261.686 313H259.508L256.384 306.642H256.252H253.216V313H251.368ZM253.216 305.19H256.208C257.396 305.19 258.262 304.904 258.804 304.332C259.347 303.76 259.618 303.027 259.618 302.132C259.618 301.223 259.347 300.504 258.804 299.976C258.276 299.433 257.404 299.162 256.186 299.162H253.216V305.19ZM264.409 313V297.6H266.257V313H264.409ZM269.523 313V297.6H271.679L277.223 308.336L282.723 297.6H284.901V313H283.053V300.9L277.905 310.8H276.519L271.371 300.922V313H269.523ZM287.181 313L292.857 297.6H294.815L300.469 313H298.511L297.103 309.04H290.547L289.117 313H287.181ZM291.097 307.544H296.553L293.825 299.932L291.097 307.544ZM302.759 313V297.6H307.731C308.934 297.6 309.916 297.798 310.679 298.194C311.442 298.59 312.006 299.133 312.373 299.822C312.74 300.511 312.923 301.274 312.923 302.11C312.923 303.078 312.659 303.951 312.131 304.728C311.618 305.505 310.811 306.055 309.711 306.378L313.077 313H310.899L307.775 306.642H307.643H304.607V313H302.759ZM304.607 305.19H307.599C308.787 305.19 309.652 304.904 310.195 304.332C310.738 303.76 311.009 303.027 311.009 302.132C311.009 301.223 310.738 300.504 310.195 299.976C309.667 299.433 308.794 299.162 307.577 299.162H304.607V305.19ZM318.983 313V307.148L313.967 297.6H316.057L319.907 305.388L323.757 297.6H325.825L320.831 307.148V313H318.983ZM340.472 313.264C338.961 313.264 337.656 312.934 336.556 312.274C335.471 311.599 334.627 310.668 334.026 309.48C333.425 308.277 333.124 306.884 333.124 305.3C333.124 303.731 333.425 302.352 334.026 301.164C334.627 299.961 335.471 299.023 336.556 298.348C337.656 297.673 338.961 297.336 340.472 297.336C342.232 297.336 343.662 297.761 344.762 298.612C345.877 299.448 346.588 300.621 346.896 302.132H344.85C344.615 301.179 344.131 300.416 343.398 299.844C342.679 299.257 341.704 298.964 340.472 298.964C339.372 298.964 338.411 299.221 337.59 299.734C336.769 300.233 336.131 300.959 335.676 301.912C335.236 302.851 335.016 303.98 335.016 305.3C335.016 306.62 335.236 307.757 335.676 308.71C336.131 309.649 336.769 310.375 337.59 310.888C338.411 311.387 339.372 311.636 340.472 311.636C341.704 311.636 342.679 311.357 343.398 310.8C344.131 310.228 344.615 309.473 344.85 308.534H346.896C346.588 310.015 345.877 311.174 344.762 312.01C343.662 312.846 342.232 313.264 340.472 313.264ZM356.548 313.264C355.037 313.264 353.71 312.934 352.566 312.274C351.436 311.599 350.549 310.661 349.904 309.458C349.273 308.255 348.958 306.869 348.958 305.3C348.958 303.731 349.273 302.352 349.904 301.164C350.549 299.961 351.436 299.023 352.566 298.348C353.71 297.673 355.037 297.336 356.548 297.336C358.073 297.336 359.4 297.673 360.53 298.348C361.674 299.023 362.561 299.961 363.192 301.164C363.822 302.352 364.138 303.731 364.138 305.3C364.138 306.869 363.822 308.255 363.192 309.458C362.561 310.661 361.674 311.599 360.53 312.274C359.4 312.934 358.073 313.264 356.548 313.264ZM356.548 311.636C357.677 311.636 358.667 311.387 359.518 310.888C360.383 310.375 361.05 309.649 361.52 308.71C362.004 307.757 362.246 306.62 362.246 305.3C362.246 303.98 362.004 302.851 361.52 301.912C361.05 300.973 360.383 300.255 359.518 299.756C358.667 299.243 357.677 298.986 356.548 298.986C355.418 298.986 354.421 299.243 353.556 299.756C352.705 300.255 352.038 300.973 351.554 301.912C351.084 302.851 350.85 303.98 350.85 305.3C350.85 306.62 351.084 307.757 351.554 308.71C352.038 309.649 352.705 310.375 353.556 310.888C354.421 311.387 355.418 311.636 356.548 311.636ZM366.804 313V297.6H368.652V311.526H375.824V313H366.804ZM383.919 313.264C382.408 313.264 381.081 312.934 379.937 312.274C378.808 311.599 377.92 310.661 377.275 309.458C376.644 308.255 376.329 306.869 376.329 305.3C376.329 303.731 376.644 302.352 377.275 301.164C377.92 299.961 378.808 299.023 379.937 298.348C381.081 297.673 382.408 297.336 383.919 297.336C385.444 297.336 386.772 297.673 387.901 298.348C389.045 299.023 389.932 299.961 390.563 301.164C391.194 302.352 391.509 303.731 391.509 305.3C391.509 306.869 391.194 308.255 390.563 309.458C389.932 310.661 389.045 311.599 387.901 312.274C386.772 312.934 385.444 313.264 383.919 313.264ZM383.919 311.636C385.048 311.636 386.038 311.387 386.889 310.888C387.754 310.375 388.422 309.649 388.891 308.71C389.375 307.757 389.617 306.62 389.617 305.3C389.617 303.98 389.375 302.851 388.891 301.912C388.422 300.973 387.754 300.255 386.889 299.756C386.038 299.243 385.048 298.986 383.919 298.986C382.79 298.986 381.792 299.243 380.927 299.756C380.076 300.255 379.409 300.973 378.925 301.912C378.456 302.851 378.221 303.98 378.221 305.3C378.221 306.62 378.456 307.757 378.925 308.71C379.409 309.649 380.076 310.375 380.927 310.888C381.792 311.387 382.79 311.636 383.919 311.636ZM394.175 313V297.6H399.147C400.35 297.6 401.332 297.798 402.095 298.194C402.858 298.59 403.422 299.133 403.789 299.822C404.156 300.511 404.339 301.274 404.339 302.11C404.339 303.078 404.075 303.951 403.547 304.728C403.034 305.505 402.227 306.055 401.127 306.378L404.493 313H402.315L399.191 306.642H399.059H396.023V313H394.175ZM396.023 305.19H399.015C400.203 305.19 401.068 304.904 401.611 304.332C402.154 303.76 402.425 303.027 402.425 302.132C402.425 301.223 402.154 300.504 401.611 299.976C401.083 299.433 400.21 299.162 398.993 299.162H396.023V305.19Z" fill="#070707"/>
<path d="M379 345H237V433H379V345Z" fill="#0A5076"/>
<path d="M485 345H389V433H485V345Z" fill="#00D2AA"/>
<path d="M644 345H495V433H644V345Z" fill="#00B0DA"/>
<path d="M344.715 215.364C337.071 215.364 331.716 210.894 331.393 205.237H339.166C339.446 207.547 341.584 209.318 344.672 209.318C347.695 209.318 349.357 207.936 349.357 206.187C349.357 200.746 332.127 204.201 332.127 193.038C332.127 187.963 336.639 183.904 344.175 183.904C351.56 183.904 356.008 187.92 356.461 193.988H349.055C348.839 191.612 346.961 190.015 343.938 190.015C341.066 190.015 339.598 191.181 339.598 192.93C339.598 198.5 356.504 195.024 356.72 206.209C356.699 211.391 352.143 215.364 344.715 215.364Z" fill="#0A5076"/>
<path d="M376.152 183.861C383.753 183.861 388.87 187.834 390.533 194.657H382.22C381.335 192.066 379.305 190.425 376.109 190.425C371.812 190.425 368.941 193.664 368.941 199.623C368.941 205.561 371.812 208.757 376.109 208.757C379.305 208.757 381.291 207.331 382.22 204.568H390.533C388.87 211.067 383.753 215.364 376.152 215.364C367.343 215.364 361.06 209.188 361.06 199.623C361.06 190.036 367.343 183.861 376.152 183.861Z" fill="#0A5076"/>
<path d="M396.191 174.123H403.899V188.158C405.885 185.567 409.297 183.926 413.378 183.926C420.266 183.926 425.275 188.546 425.275 196.967V214.867H417.545V198.025C417.545 193.124 414.846 190.49 410.765 190.49C406.576 190.49 403.877 193.124 403.877 198.025V214.867H396.169V174.123H396.191Z" fill="#0A5076"/>
<path d="M446.132 215.364C437.322 215.364 430.65 209.188 430.65 199.623C430.65 189.993 437.538 183.883 446.348 183.883C455.157 183.883 462.045 189.993 462.045 199.623C462.045 209.188 454.985 215.364 446.132 215.364ZM446.132 208.649C450.213 208.649 454.121 205.669 454.121 199.623C454.121 193.513 450.321 190.598 446.24 190.598C442.159 190.598 438.467 193.513 438.467 199.623C438.467 205.669 441.986 208.649 446.132 208.649Z" fill="#0A5076"/>
<path d="M481.242 215.364C472.433 215.364 465.761 209.188 465.761 199.623C465.761 189.993 472.649 183.883 481.458 183.883C490.267 183.883 497.155 189.993 497.155 199.623C497.155 209.188 490.116 215.364 481.242 215.364ZM481.242 208.649C485.323 208.649 489.231 205.669 489.231 199.623C489.231 193.513 485.431 190.598 481.35 190.598C477.269 190.598 473.577 193.513 473.577 199.623C473.599 205.669 477.118 208.649 481.242 208.649Z" fill="#0A5076"/>
<path d="M502.834 174.123H510.542V214.867H502.834V174.123Z" fill="#0A5076"/>
<path d="M530.082 183.861C534.876 183.861 538.352 186.063 540.166 188.697V184.357H547.939V215.083C547.939 223.353 542.865 229.895 532.846 229.895C524.252 229.895 518.25 225.598 517.494 218.603H525.138C525.915 221.366 528.765 223.18 532.63 223.18C536.862 223.18 540.166 220.762 540.166 215.083V210.354C538.352 212.989 534.876 215.364 530.082 215.364C522.309 215.364 516.155 209.037 516.155 199.515C516.155 189.971 522.331 183.861 530.082 183.861ZM532.069 190.641C527.945 190.641 524.036 193.728 524.036 199.515C524.036 205.302 527.945 208.605 532.069 208.605C536.301 208.605 540.166 205.41 540.166 199.623C540.166 193.836 536.301 190.641 532.069 190.641Z" fill="#0A5076"/>
<path d="M567.416 183.861C572.318 183.861 575.686 186.171 577.5 188.697V184.357H585.273V214.867H577.5V210.398C575.686 213.032 572.21 215.364 567.373 215.364C559.665 215.364 553.489 209.037 553.489 199.515C553.489 189.971 559.665 183.861 567.416 183.861ZM569.403 190.641C565.279 190.641 561.37 193.728 561.37 199.515C561.37 205.302 565.279 208.605 569.403 208.605C573.635 208.605 577.5 205.41 577.5 199.623C577.5 193.836 573.635 190.641 569.403 190.641Z" fill="#0A5076"/>
<path d="M594.017 190.706H590.39V184.379H594.017V176.822H601.79V184.358H608.613V190.684H601.79V205.432C601.79 207.461 602.611 208.346 605.029 208.346H608.613V214.867H603.777C597.947 214.867 594.039 212.384 594.039 205.388V190.706H594.017Z" fill="#0A5076"/>
<path d="M627.485 215.364C618.61 215.364 612.176 209.188 612.176 199.623C612.176 189.993 618.459 183.883 627.485 183.883C636.294 183.883 642.513 189.885 642.513 198.975C642.513 199.969 642.448 200.962 642.297 201.955H619.992C620.381 206.468 623.468 208.994 627.312 208.994C630.615 208.994 632.429 207.332 633.422 205.302H641.735C640.094 210.894 635.042 215.364 627.485 215.364ZM620.057 196.751H634.545C634.437 192.735 631.242 190.209 627.269 190.209C623.576 190.209 620.661 192.563 620.057 196.751Z" fill="#0A5076"/>
<path d="M319.903 173.41C319.881 173.475 319.86 173.539 319.838 173.604C319.838 173.755 319.773 173.798 319.644 173.82C318.996 173.971 318.37 174.187 317.808 174.554C316.793 175.224 316.297 176.195 316.103 177.361C315.93 178.419 316.038 179.456 316.059 180.514C316.103 181.852 316.103 183.191 316.124 184.53C316.146 186.408 316.103 188.287 316.167 190.144C316.189 190.813 316.513 191.482 316.686 192.173C316.837 192.799 317.031 193.447 317.096 194.095C317.204 194.915 316.988 195.714 316.599 196.47C316.556 196.556 316.405 196.664 316.297 196.664C315.735 196.708 315.196 196.643 314.677 196.449C314.224 196.254 314.116 195.844 314.116 195.434C314.116 194.829 314.181 194.203 314.267 193.62C314.31 193.382 314.418 193.145 314.569 192.951C315.023 192.368 315.152 191.72 315.131 191.007C315.109 190.187 315.131 189.388 315.131 188.567C315.131 185.933 315.152 183.299 315.152 180.665C315.152 179.132 315.131 177.599 315.131 176.087C315.131 176.001 315.131 175.936 315.109 175.828C314.958 175.871 314.829 175.914 314.699 175.979C312.605 176.778 310.532 177.599 308.416 178.354C307.444 178.7 307.099 179.391 307.012 180.276C306.926 181.269 306.904 182.263 306.904 183.256C306.883 184.724 306.904 186.192 306.904 187.661C306.904 187.769 306.904 187.876 306.904 188.028C293.258 181.55 279.633 181.572 265.987 188.006C265.966 187.898 265.966 187.833 265.966 187.769C265.966 185.868 265.944 183.947 265.944 182.047C265.944 181.442 265.987 180.837 265.944 180.233C265.879 179.434 265.469 178.829 264.756 178.462C264.13 178.16 263.461 177.923 262.792 177.685C259.358 176.368 255.925 175.072 252.471 173.755C252.427 173.734 252.384 173.734 252.298 173.69C252.427 173.626 252.492 173.604 252.579 173.561C258.214 171.121 263.979 169.027 269.701 166.824C274.559 164.967 279.439 163.154 284.297 161.318C285.053 161.038 285.83 160.843 286.629 160.886C287.061 160.908 287.536 160.973 287.946 161.124C292.826 162.959 297.706 164.795 302.586 166.651C308.178 168.789 313.749 170.927 319.32 173.086C319.514 173.151 319.687 173.302 319.86 173.41C319.903 173.367 319.903 173.388 319.903 173.41Z" fill="#0A5076"/>
<path d="M286.176 238.402C285.852 237.927 285.55 237.473 285.248 237.02C282.29 232.637 279.332 228.232 276.374 223.849C276.222 223.633 276.028 223.46 275.855 223.266C275.51 222.877 275.186 222.445 274.819 222.078C274.214 221.452 273.588 220.826 272.962 220.2C271.882 219.142 270.803 218.105 269.723 217.069C269.507 216.875 269.227 216.723 268.989 216.551C268.903 216.486 268.795 216.464 268.73 216.4C267.175 215.255 265.577 214.176 264.044 212.966C263.073 212.211 262.166 211.347 261.432 210.332C260.892 209.555 260.849 208.691 261.151 207.828C261.518 206.726 261.928 205.647 262.36 204.567C263.569 201.501 264.8 198.457 266.031 195.39C266.333 194.656 266.636 193.944 266.959 193.231C267.326 192.432 267.845 191.763 268.492 191.18C269.032 190.705 269.68 190.446 270.349 190.252C274.128 189.194 277.907 188.136 281.707 187.099C282.355 186.926 282.981 186.754 283.672 186.559C283.628 186.84 283.607 187.099 283.564 187.337C283.002 190.662 282.484 193.987 281.901 197.291C281.448 199.817 280.929 202.322 280.454 204.848C280.26 205.884 280.044 206.921 279.871 207.979C279.764 208.648 279.958 209.296 280.411 209.814C281.62 211.196 282.83 212.535 284.039 213.895C284.622 214.543 285.205 215.19 285.788 215.838C285.831 215.903 285.874 215.968 285.96 216.033C286.09 215.881 286.198 215.773 286.284 215.644C288.163 213.377 290.041 211.11 291.92 208.842C292.006 208.734 292.049 208.562 292.028 208.432C291.661 206.273 291.294 204.114 290.905 201.933C290.473 199.493 290.063 197.075 289.631 194.635C289.264 192.497 288.897 190.36 288.53 188.222C288.487 187.941 288.422 187.661 288.379 187.337C288.875 187.358 289.35 187.358 289.825 187.401C291.207 187.553 292.589 187.682 293.95 187.92C297.21 188.459 300.341 189.453 303.342 190.856C303.968 191.158 304.422 191.655 304.681 192.303C306.171 195.952 307.639 199.623 309.107 203.272C309.258 203.66 309.409 204.092 309.582 204.481C309.863 205.042 309.884 205.647 309.798 206.251C309.755 206.489 309.841 206.64 310.014 206.813C310.403 207.223 310.813 207.612 311.115 208.065C311.698 208.886 311.59 209.663 310.921 210.397C310.77 210.548 310.619 210.699 310.446 210.829C309.863 211.347 309.28 211.865 308.697 212.405C308.157 212.902 307.596 213.269 306.818 213.118C306.602 213.074 306.387 213.01 306.127 212.923C306.041 213.096 305.933 213.312 305.847 213.506C305.739 213.765 305.631 214.003 305.501 214.262C305.264 214.759 304.961 215.19 304.551 215.579C300.816 219.034 297.21 222.64 293.971 226.591C291.013 230.197 288.379 234.019 286.263 238.164C286.263 238.251 286.22 238.294 286.176 238.402Z" fill="#0A5076"/>
<path d="M350.805 734.305C350.805 737.07 350.138 739.662 348.805 742.081C347.521 744.5 345.472 746.45 342.658 747.931C339.894 749.412 336.388 750.153 332.142 750.153H323.478V770H313.11V718.309H332.142C336.141 718.309 339.548 719 342.362 720.382C345.176 721.765 347.275 723.665 348.657 726.085C350.089 728.504 350.805 731.244 350.805 734.305ZM331.698 741.785C334.562 741.785 336.684 741.143 338.067 739.859C339.449 738.526 340.14 736.675 340.14 734.305C340.14 729.269 337.326 726.751 331.698 726.751H323.478V741.785H331.698ZM376.383 770.667C372.434 770.667 368.879 769.803 365.719 768.075C362.56 766.297 360.066 763.804 358.24 760.595C356.462 757.386 355.574 753.683 355.574 749.486C355.574 745.29 356.487 741.587 358.314 738.378C360.19 735.169 362.732 732.7 365.942 730.972C369.151 729.195 372.73 728.306 376.68 728.306C380.629 728.306 384.209 729.195 387.418 730.972C390.627 732.7 393.145 735.169 394.972 738.378C396.848 741.587 397.786 745.29 397.786 749.486C397.786 753.683 396.823 757.386 394.898 760.595C393.021 763.804 390.454 766.297 387.196 768.075C383.987 769.803 380.383 770.667 376.383 770.667ZM376.383 761.632C378.26 761.632 380.012 761.187 381.641 760.299C383.32 759.361 384.653 757.978 385.641 756.151C386.628 754.325 387.122 752.103 387.122 749.486C387.122 745.586 386.085 742.599 384.011 740.526C381.987 738.403 379.494 737.341 376.532 737.341C373.569 737.341 371.076 738.403 369.052 740.526C367.077 742.599 366.09 745.586 366.09 749.486C366.09 753.387 367.052 756.398 368.978 758.521C370.953 760.595 373.421 761.632 376.383 761.632ZM415.759 734.897C417.092 733.021 418.919 731.466 421.239 730.232C423.609 728.948 426.3 728.306 429.311 728.306C432.817 728.306 435.976 729.17 438.79 730.898C441.654 732.626 443.9 735.095 445.53 738.304C447.208 741.464 448.047 745.142 448.047 749.338C448.047 753.535 447.208 757.262 445.53 760.521C443.9 763.73 441.654 766.223 438.79 768C435.976 769.778 432.817 770.667 429.311 770.667C426.3 770.667 423.634 770.049 421.313 768.815C419.042 767.581 417.191 766.026 415.759 764.15V789.551H405.391V728.973H415.759V734.897ZM437.457 749.338C437.457 746.87 436.939 744.747 435.902 742.969C434.915 741.143 433.582 739.76 431.903 738.822C430.274 737.884 428.497 737.415 426.571 737.415C424.695 737.415 422.918 737.909 421.239 738.896C419.61 739.834 418.277 741.217 417.24 743.044C416.253 744.87 415.759 747.018 415.759 749.486C415.759 751.955 416.253 754.103 417.24 755.929C418.277 757.756 419.61 759.163 421.239 760.151C422.918 761.089 424.695 761.558 426.571 761.558C428.497 761.558 430.274 761.064 431.903 760.076C433.582 759.089 434.915 757.682 435.902 755.855C436.939 754.029 437.457 751.856 437.457 749.338ZM465.949 734.897C467.282 733.021 469.109 731.466 471.43 730.232C473.799 728.948 476.49 728.306 479.502 728.306C483.007 728.306 486.167 729.17 488.981 730.898C491.844 732.626 494.091 735.095 495.72 738.304C497.399 741.464 498.238 745.142 498.238 749.338C498.238 753.535 497.399 757.262 495.72 760.521C494.091 763.73 491.844 766.223 488.981 768C486.167 769.778 483.007 770.667 479.502 770.667C476.49 770.667 473.824 770.049 471.504 768.815C469.233 767.581 467.381 766.026 465.949 764.15V789.551H455.582V728.973H465.949V734.897ZM487.648 749.338C487.648 746.87 487.129 744.747 486.093 742.969C485.105 741.143 483.772 739.76 482.094 738.822C480.464 737.884 478.687 737.415 476.762 737.415C474.886 737.415 473.108 737.909 471.43 738.896C469.8 739.834 468.467 741.217 467.431 743.044C466.443 744.87 465.949 747.018 465.949 749.486C465.949 751.955 466.443 754.103 467.431 755.929C468.467 757.756 469.8 759.163 471.43 760.151C473.108 761.089 474.886 761.558 476.762 761.558C478.687 761.558 480.464 761.064 482.094 760.076C483.772 759.089 485.105 757.682 486.093 755.855C487.129 754.029 487.648 751.856 487.648 749.338ZM511.03 724.085C509.203 724.085 507.673 723.517 506.439 722.382C505.254 721.197 504.661 719.74 504.661 718.012C504.661 716.284 505.254 714.853 506.439 713.717C507.673 712.532 509.203 711.94 511.03 711.94C512.857 711.94 514.363 712.532 515.547 713.717C516.782 714.853 517.399 716.284 517.399 718.012C517.399 719.74 516.782 721.197 515.547 722.382C514.363 723.517 512.857 724.085 511.03 724.085ZM516.14 728.973V770H505.772V728.973H516.14ZM549.119 728.38C554.006 728.38 557.956 729.936 560.968 733.046C563.979 736.107 565.485 740.402 565.485 745.932V770H555.117V747.339C555.117 744.08 554.303 741.587 552.673 739.859C551.044 738.082 548.822 737.193 546.008 737.193C543.145 737.193 540.874 738.082 539.195 739.859C537.566 741.587 536.751 744.08 536.751 747.339V770H526.383V728.973H536.751V734.083C538.134 732.305 539.886 730.923 542.009 729.936C544.182 728.899 546.551 728.38 549.119 728.38ZM591.044 770.667C587.687 770.667 584.676 770.074 582.01 768.889C579.343 767.655 577.221 766.001 575.641 763.927C574.11 761.854 573.271 759.558 573.123 757.04H583.565C583.762 758.62 584.527 759.928 585.86 760.965C587.243 762.002 588.946 762.52 590.97 762.52C592.945 762.52 594.476 762.125 595.562 761.335C596.697 760.545 597.265 759.533 597.265 758.299C597.265 756.966 596.574 755.979 595.192 755.337C593.859 754.646 591.711 753.905 588.749 753.115C585.688 752.375 583.17 751.609 581.195 750.819C579.269 750.029 577.591 748.82 576.159 747.191C574.777 745.561 574.085 743.364 574.085 740.6C574.085 738.329 574.727 736.255 576.011 734.379C577.344 732.503 579.22 731.022 581.639 729.936C584.108 728.849 586.996 728.306 590.304 728.306C595.192 728.306 599.092 729.541 602.005 732.009C604.918 734.428 606.522 737.711 606.818 741.859H596.895C596.747 740.229 596.056 738.946 594.821 738.008C593.636 737.02 592.032 736.527 590.008 736.527C588.132 736.527 586.675 736.872 585.638 737.563C584.651 738.255 584.157 739.217 584.157 740.452C584.157 741.834 584.848 742.895 586.231 743.636C587.613 744.327 589.761 745.043 592.674 745.784C595.636 746.524 598.08 747.289 600.005 748.079C601.931 748.869 603.585 750.104 604.967 751.782C606.399 753.411 607.139 755.584 607.189 758.299C607.189 760.669 606.522 762.792 605.189 764.668C603.905 766.544 602.029 768.025 599.561 769.111C597.142 770.148 594.303 770.667 591.044 770.667Z" fill="white"/>
<path d="M319.479 844.815C317.677 844.815 316.047 844.507 314.591 843.889C313.159 843.272 312.024 842.384 311.184 841.223C310.345 840.063 309.913 838.693 309.888 837.113H315.443C315.517 838.175 315.887 839.014 316.554 839.631C317.245 840.248 318.183 840.557 319.368 840.557C320.577 840.557 321.528 840.273 322.219 839.705C322.91 839.113 323.256 838.348 323.256 837.409C323.256 836.644 323.021 836.015 322.552 835.521C322.083 835.027 321.491 834.645 320.775 834.373C320.084 834.077 319.121 833.756 317.887 833.41C316.208 832.917 314.838 832.435 313.776 831.966C312.74 831.473 311.839 830.744 311.073 829.782C310.333 828.794 309.962 827.486 309.962 825.857C309.962 824.326 310.345 822.993 311.11 821.858C311.876 820.722 312.949 819.858 314.332 819.266C315.714 818.649 317.294 818.34 319.071 818.34C321.737 818.34 323.897 818.994 325.551 820.302C327.23 821.586 328.156 823.388 328.328 825.709H322.626C322.577 824.82 322.194 824.092 321.478 823.524C320.787 822.931 319.861 822.635 318.701 822.635C317.689 822.635 316.874 822.894 316.257 823.413C315.665 823.931 315.369 824.684 315.369 825.672C315.369 826.363 315.591 826.943 316.035 827.412C316.504 827.856 317.072 828.226 317.738 828.523C318.43 828.794 319.392 829.115 320.627 829.485C322.305 829.979 323.675 830.473 324.737 830.967C325.798 831.46 326.712 832.201 327.477 833.188C328.242 834.176 328.625 835.472 328.625 837.076C328.625 838.459 328.267 839.742 327.551 840.927C326.835 842.112 325.786 843.062 324.403 843.778C323.021 844.47 321.38 844.815 319.479 844.815ZM352.188 833.855C352.188 834.595 352.139 835.262 352.04 835.854H337.044C337.167 837.335 337.686 838.496 338.599 839.335C339.513 840.174 340.636 840.594 341.969 840.594C343.894 840.594 345.264 839.767 346.079 838.113H351.67C351.078 840.088 349.942 841.717 348.263 843.001C346.585 844.26 344.524 844.889 342.08 844.889C340.105 844.889 338.328 844.457 336.748 843.593C335.193 842.705 333.971 841.458 333.082 839.853C332.218 838.249 331.786 836.397 331.786 834.299C331.786 832.176 332.218 830.312 333.082 828.708C333.946 827.103 335.156 825.869 336.711 825.005C338.266 824.141 340.056 823.709 342.08 823.709C344.03 823.709 345.77 824.129 347.301 824.968C348.856 825.807 350.053 827.005 350.892 828.56C351.756 830.09 352.188 831.855 352.188 833.855ZM346.819 832.374C346.795 831.041 346.313 829.979 345.375 829.189C344.437 828.375 343.289 827.967 341.932 827.967C340.648 827.967 339.562 828.362 338.673 829.152C337.809 829.917 337.278 830.991 337.081 832.374H346.819ZM381.448 823.746C383.966 823.746 385.99 824.524 387.52 826.079C389.075 827.609 389.853 829.757 389.853 832.522V844.556H384.669V833.225C384.669 831.621 384.262 830.399 383.447 829.56C382.633 828.696 381.522 828.264 380.115 828.264C378.708 828.264 377.584 828.696 376.745 829.56C375.93 830.399 375.523 831.621 375.523 833.225V844.556H370.339V833.225C370.339 831.621 369.932 830.399 369.117 829.56C368.303 828.696 367.192 828.264 365.785 828.264C364.353 828.264 363.217 828.696 362.378 829.56C361.564 830.399 361.156 831.621 361.156 833.225V844.556H355.972V824.042H361.156V826.523C361.823 825.659 362.674 824.98 363.711 824.487C364.773 823.993 365.933 823.746 367.192 823.746C368.796 823.746 370.228 824.092 371.487 824.783C372.746 825.449 373.721 826.412 374.412 827.671C375.079 826.486 376.042 825.536 377.301 824.82C378.584 824.104 379.967 823.746 381.448 823.746ZM397.401 821.598C396.488 821.598 395.723 821.315 395.106 820.747C394.513 820.154 394.217 819.426 394.217 818.562C394.217 817.698 394.513 816.982 395.106 816.415C395.723 815.822 396.488 815.526 397.401 815.526C398.315 815.526 399.068 815.822 399.66 816.415C400.277 816.982 400.586 817.698 400.586 818.562C400.586 819.426 400.277 820.154 399.66 820.747C399.068 821.315 398.315 821.598 397.401 821.598ZM399.956 824.042V844.556H394.772V824.042H399.956ZM420.852 829.152V833.522H405.152V829.152H420.852ZM431.85 827.042C432.516 826.054 433.43 825.252 434.59 824.635C435.775 824.018 437.12 823.709 438.626 823.709C440.378 823.709 441.958 824.141 443.365 825.005C444.797 825.869 445.92 827.103 446.735 828.708C447.574 830.288 447.994 832.127 447.994 834.225C447.994 836.323 447.574 838.187 446.735 839.816C445.92 841.421 444.797 842.667 443.365 843.556C441.958 844.445 440.378 844.889 438.626 844.889C437.095 844.889 435.75 844.593 434.59 844C433.454 843.383 432.541 842.593 431.85 841.631V844.556H426.666V817.155H431.85V827.042ZM442.699 834.225C442.699 832.991 442.44 831.929 441.921 831.041C441.428 830.127 440.761 829.436 439.922 828.967C439.107 828.498 438.218 828.264 437.256 828.264C436.318 828.264 435.429 828.51 434.59 829.004C433.775 829.473 433.109 830.164 432.59 831.078C432.096 831.991 431.85 833.065 431.85 834.299C431.85 835.533 432.096 836.607 432.59 837.521C433.109 838.434 433.775 839.137 434.59 839.631C435.429 840.1 436.318 840.335 437.256 840.335C438.218 840.335 439.107 840.088 439.922 839.594C440.761 839.1 441.428 838.397 441.921 837.484C442.44 836.57 442.699 835.484 442.699 834.225ZM460.87 844.889C458.895 844.889 457.118 844.457 455.538 843.593C453.958 842.705 452.711 841.458 451.798 839.853C450.909 838.249 450.465 836.397 450.465 834.299C450.465 832.201 450.922 830.349 451.835 828.745C452.773 827.14 454.044 825.906 455.649 825.042C457.253 824.153 459.043 823.709 461.018 823.709C462.993 823.709 464.783 824.153 466.387 825.042C467.992 825.906 469.251 827.14 470.164 828.745C471.102 830.349 471.571 832.201 471.571 834.299C471.571 836.397 471.09 838.249 470.127 839.853C469.189 841.458 467.905 842.705 466.276 843.593C464.671 844.457 462.869 844.889 460.87 844.889ZM460.87 840.372C461.808 840.372 462.684 840.15 463.499 839.705C464.338 839.236 465.005 838.545 465.498 837.632C465.992 836.718 466.239 835.607 466.239 834.299C466.239 832.349 465.721 830.855 464.684 829.819C463.672 828.757 462.425 828.226 460.944 828.226C459.463 828.226 458.216 828.757 457.204 829.819C456.217 830.855 455.723 832.349 455.723 834.299C455.723 836.249 456.204 837.755 457.167 838.817C458.154 839.853 459.389 840.372 460.87 840.372ZM480.558 817.155V844.556H475.374V817.155H480.558ZM484.346 834.225C484.346 832.151 484.754 830.312 485.568 828.708C486.408 827.103 487.543 825.869 488.975 825.005C490.407 824.141 491.999 823.709 493.751 823.709C495.084 823.709 496.356 824.005 497.565 824.598C498.775 825.165 499.738 825.931 500.454 826.893V817.155H505.712V844.556H500.454V841.52C499.812 842.532 498.911 843.346 497.75 843.963C496.59 844.581 495.245 844.889 493.714 844.889C491.986 844.889 490.407 844.445 488.975 843.556C487.543 842.667 486.408 841.421 485.568 839.816C484.754 838.187 484.346 836.323 484.346 834.225ZM500.491 834.299C500.491 833.04 500.244 831.966 499.75 831.078C499.256 830.164 498.59 829.473 497.75 829.004C496.911 828.51 496.01 828.264 495.047 828.264C494.085 828.264 493.196 828.498 492.381 828.967C491.567 829.436 490.9 830.127 490.382 831.041C489.888 831.929 489.641 832.991 489.641 834.225C489.641 835.459 489.888 836.545 490.382 837.484C490.9 838.397 491.567 839.1 492.381 839.594C493.221 840.088 494.109 840.335 495.047 840.335C496.01 840.335 496.911 840.1 497.75 839.631C498.59 839.137 499.256 838.446 499.75 837.558C500.244 836.644 500.491 835.558 500.491 834.299Z" fill="white"/>
<path d="M336.014 873.43V897.556H332.057V881.032L324.697 897.556H321.955L314.561 881.032V897.556H310.604V873.43H314.873L323.344 892.349L331.779 873.43H336.014ZM358.746 887.524C358.746 888.241 358.7 888.889 358.607 889.468H343.993C344.108 890.995 344.675 892.222 345.694 893.147C346.712 894.073 347.962 894.536 349.443 894.536C351.572 894.536 353.076 893.645 353.956 891.863H358.225C357.647 893.622 356.594 895.068 355.066 896.202C353.562 897.313 351.688 897.868 349.443 897.868C347.614 897.868 345.971 897.463 344.513 896.653C343.078 895.82 341.944 894.663 341.111 893.182C340.301 891.678 339.896 889.942 339.896 887.975C339.896 886.008 340.29 884.284 341.077 882.803C341.887 881.298 343.009 880.141 344.444 879.331C345.902 878.521 347.568 878.116 349.443 878.116C351.248 878.116 352.856 878.51 354.268 879.296C355.68 880.083 356.779 881.194 357.566 882.629C358.353 884.041 358.746 885.672 358.746 887.524ZM354.615 886.274C354.592 884.816 354.071 883.647 353.053 882.768C352.035 881.888 350.773 881.449 349.269 881.449C347.904 881.449 346.735 881.888 345.763 882.768C344.791 883.624 344.212 884.793 344.027 886.274H354.615ZM361.321 887.905C361.321 885.985 361.715 884.284 362.502 882.803C363.312 881.321 364.399 880.176 365.765 879.366C367.153 878.533 368.692 878.116 370.382 878.116C371.631 878.116 372.858 878.394 374.061 878.949C375.288 879.482 376.26 880.199 376.977 881.102V871.868H380.969V897.556H376.977V894.675C376.329 895.6 375.427 896.364 374.27 896.966C373.136 897.567 371.828 897.868 370.347 897.868C368.681 897.868 367.153 897.452 365.765 896.619C364.399 895.762 363.312 894.582 362.502 893.078C361.715 891.55 361.321 889.826 361.321 887.905ZM376.977 887.975C376.977 886.656 376.7 885.51 376.144 884.538C375.612 883.566 374.906 882.826 374.027 882.317C373.147 881.807 372.198 881.553 371.18 881.553C370.162 881.553 369.213 881.807 368.334 882.317C367.454 882.803 366.737 883.531 366.181 884.503C365.649 885.452 365.383 886.586 365.383 887.905C365.383 889.225 365.649 890.382 366.181 891.377C366.737 892.372 367.454 893.136 368.334 893.668C369.236 894.177 370.185 894.432 371.18 894.432C372.198 894.432 373.147 894.177 374.027 893.668C374.906 893.159 375.612 892.418 376.144 891.446C376.7 890.451 376.977 889.294 376.977 887.975ZM388.181 875.894C387.463 875.894 386.862 875.651 386.376 875.165C385.89 874.679 385.647 874.078 385.647 873.36C385.647 872.643 385.89 872.041 386.376 871.555C386.862 871.069 387.463 870.826 388.181 870.826C388.875 870.826 389.465 871.069 389.951 871.555C390.437 872.041 390.68 872.643 390.68 873.36C390.68 874.078 390.437 874.679 389.951 875.165C389.465 875.651 388.875 875.894 388.181 875.894ZM390.125 878.429V897.556H386.167V878.429H390.125ZM412.643 878.429V897.556H408.685V895.3C408.06 896.086 407.239 896.711 406.221 897.174C405.225 897.614 404.161 897.834 403.027 897.834C401.523 897.834 400.169 897.521 398.965 896.896C397.785 896.271 396.848 895.346 396.154 894.119C395.482 892.893 395.147 891.412 395.147 889.676V878.429H399.069V889.086C399.069 890.798 399.498 892.117 400.354 893.043C401.21 893.946 402.379 894.397 403.86 894.397C405.341 894.397 406.51 893.946 407.366 893.043C408.246 892.117 408.685 890.798 408.685 889.086V878.429H412.643ZM441.018 878.116C442.523 878.116 443.865 878.429 445.045 879.053C446.248 879.678 447.186 880.604 447.857 881.831C448.551 883.057 448.898 884.538 448.898 886.274V897.556H444.976V886.864C444.976 885.151 444.547 883.844 443.691 882.941C442.835 882.016 441.666 881.553 440.185 881.553C438.704 881.553 437.524 882.016 436.644 882.941C435.788 883.844 435.36 885.151 435.36 886.864V897.556H431.437V886.864C431.437 885.151 431.009 883.844 430.153 882.941C429.297 882.016 428.128 881.553 426.647 881.553C425.166 881.553 423.985 882.016 423.106 882.941C422.25 883.844 421.821 885.151 421.821 886.864V897.556H417.864V878.429H421.821V880.616C422.469 879.829 423.291 879.215 424.286 878.776C425.281 878.336 426.346 878.116 427.48 878.116C429.007 878.116 430.373 878.44 431.576 879.088C432.779 879.736 433.705 880.673 434.353 881.9C434.932 880.743 435.834 879.829 437.061 879.158C438.287 878.463 439.607 878.116 441.018 878.116Z" fill="white"/>
<path d="M322.385 947.556L317.007 938.322H313.443V947.556H310.495V924.973H317.785C319.491 924.973 320.927 925.265 322.094 925.848C323.282 926.431 324.167 927.22 324.751 928.213C325.334 929.207 325.625 930.341 325.625 931.615C325.625 933.17 325.172 934.542 324.265 935.73C323.379 936.918 322.04 937.706 320.247 938.095L325.917 947.556H322.385ZM313.443 935.957H317.785C319.383 935.957 320.582 935.568 321.381 934.79C322.18 933.991 322.58 932.933 322.58 931.615C322.58 930.276 322.18 929.239 321.381 928.505C320.603 927.771 319.405 927.403 317.785 927.403H313.443V935.957ZM346.406 937.998C346.406 938.56 346.374 939.154 346.309 939.78H332.118C332.226 941.53 332.82 942.901 333.9 943.895C335.002 944.867 336.33 945.353 337.885 945.353C339.16 945.353 340.218 945.061 341.061 944.478C341.925 943.873 342.529 943.074 342.875 942.08H346.05C345.575 943.787 344.624 945.18 343.199 946.26C341.773 947.318 340.002 947.848 337.885 947.848C336.201 947.848 334.689 947.47 333.349 946.714C332.032 945.958 330.995 944.888 330.239 943.506C329.483 942.102 329.105 940.482 329.105 938.646C329.105 936.81 329.472 935.201 330.207 933.818C330.941 932.436 331.967 931.378 333.285 930.643C334.624 929.887 336.157 929.509 337.885 929.509C339.57 929.509 341.061 929.877 342.357 930.611C343.653 931.345 344.646 932.36 345.337 933.656C346.05 934.931 346.406 936.378 346.406 937.998ZM343.361 937.382C343.361 936.259 343.113 935.298 342.616 934.499C342.119 933.678 341.439 933.062 340.575 932.652C339.732 932.22 338.793 932.004 337.756 932.004C336.265 932.004 334.991 932.479 333.933 933.43C332.896 934.38 332.302 935.698 332.151 937.382H343.361ZM357.621 929.509C359.154 929.509 360.493 929.844 361.638 930.514C362.804 931.183 363.668 932.026 364.23 933.041V929.801H367.211V947.945C367.211 949.565 366.865 951.001 366.174 952.254C365.483 953.528 364.489 954.522 363.193 955.235C361.919 955.947 360.429 956.304 358.722 956.304C356.389 956.304 354.445 955.753 352.89 954.651C351.335 953.55 350.417 952.049 350.136 950.148H353.052C353.376 951.228 354.046 952.092 355.061 952.74C356.076 953.409 357.297 953.744 358.722 953.744C360.342 953.744 361.66 953.237 362.675 952.221C363.712 951.206 364.23 949.781 364.23 947.945V944.219C363.647 945.256 362.783 946.12 361.638 946.811C360.493 947.502 359.154 947.848 357.621 947.848C356.044 947.848 354.607 947.459 353.311 946.681C352.037 945.904 351.033 944.813 350.298 943.409C349.564 942.005 349.197 940.406 349.197 938.614C349.197 936.799 349.564 935.212 350.298 933.851C351.033 932.468 352.037 931.399 353.311 930.643C354.607 929.887 356.044 929.509 357.621 929.509ZM364.23 938.646C364.23 937.307 363.96 936.14 363.42 935.147C362.88 934.153 362.146 933.397 361.217 932.879C360.31 932.339 359.305 932.069 358.204 932.069C357.102 932.069 356.098 932.328 355.191 932.846C354.283 933.365 353.56 934.121 353.02 935.114C352.48 936.108 352.21 937.274 352.21 938.614C352.21 939.974 352.48 941.162 353.02 942.178C353.56 943.171 354.283 943.938 355.191 944.478C356.098 944.996 357.102 945.256 358.204 945.256C359.305 945.256 360.31 944.996 361.217 944.478C362.146 943.938 362.88 943.171 363.42 942.178C363.96 941.162 364.23 939.985 364.23 938.646ZM387.94 929.801V947.556H384.991V944.932C384.43 945.839 383.641 946.552 382.626 947.07C381.632 947.567 380.531 947.815 379.321 947.815C377.939 947.815 376.697 947.534 375.595 946.973C374.494 946.39 373.619 945.526 372.971 944.381C372.344 943.236 372.031 941.843 372.031 940.201V929.801H374.947V939.812C374.947 941.562 375.39 942.912 376.276 943.862C377.161 944.791 378.371 945.256 379.904 945.256C381.481 945.256 382.723 944.77 383.63 943.798C384.538 942.826 384.991 941.411 384.991 939.553V929.801H387.94ZM395.866 923.58V947.556H392.918V923.58H395.866ZM399.789 938.614C399.789 936.799 400.157 935.212 400.891 933.851C401.625 932.468 402.63 931.399 403.904 930.643C405.2 929.887 406.637 929.509 408.213 929.509C409.769 929.509 411.119 929.844 412.263 930.514C413.408 931.183 414.261 932.026 414.823 933.041V929.801H417.804V947.556H414.823V944.251C414.24 945.288 413.365 946.152 412.198 946.843C411.054 947.513 409.715 947.848 408.181 947.848C406.604 947.848 405.179 947.459 403.904 946.681C402.63 945.904 401.625 944.813 400.891 943.409C400.157 942.005 399.789 940.406 399.789 938.614ZM414.823 938.646C414.823 937.307 414.553 936.14 414.013 935.147C413.473 934.153 412.738 933.397 411.81 932.879C410.903 932.339 409.898 932.069 408.797 932.069C407.695 932.069 406.691 932.328 405.783 932.846C404.876 933.365 404.153 934.121 403.613 935.114C403.073 936.108 402.803 937.274 402.803 938.614C402.803 939.974 403.073 941.162 403.613 942.178C404.153 943.171 404.876 943.938 405.783 944.478C406.691 944.996 407.695 945.256 408.797 945.256C409.898 945.256 410.903 944.996 411.81 944.478C412.738 943.938 413.473 943.171 414.013 942.178C414.553 941.162 414.823 939.985 414.823 938.646ZM425.734 932.684C426.253 931.669 426.987 930.881 427.938 930.319C428.91 929.758 430.087 929.477 431.469 929.477V932.522H430.692C427.387 932.522 425.734 934.315 425.734 937.901V947.556H422.786V929.801H425.734V932.684Z" fill="white"/>
<path d="M959.945 763V710.79H966.684L986.828 756.187H984.606L1004.75 710.79H1011.41V763H1004.45V721.232H1006.9L988.087 763H983.273L964.463 721.232H966.981V763H959.945ZM1036.46 763.667C1031.97 763.667 1028.59 762.457 1026.32 760.038C1024.1 757.569 1022.99 753.792 1022.99 748.707V725.676H1030.47V748.559C1030.47 751.669 1031.11 753.965 1032.39 755.446C1033.68 756.927 1035.63 757.668 1038.24 757.668C1041.2 757.668 1043.6 756.681 1045.43 754.706C1047.25 752.731 1048.17 750.114 1048.17 746.856V725.676H1055.65V763H1048.39V755.002H1049.35C1048.31 757.767 1046.66 759.914 1044.39 761.445C1042.12 762.926 1039.48 763.667 1036.46 763.667ZM1066.6 763V708.495H1074.08V763H1066.6ZM1085.04 763V725.676H1092.52V763H1085.04ZM1084.45 717.9V710.124H1093.11V717.9H1084.45ZM1116.3 763.667C1113.19 763.667 1110.32 763.272 1107.71 762.482C1105.09 761.692 1102.92 760.581 1101.19 759.149L1103.48 754.039C1105.31 755.422 1107.34 756.458 1109.56 757.15C1111.78 757.841 1114.05 758.186 1116.37 758.186C1119.09 758.186 1121.13 757.717 1122.52 756.779C1123.9 755.792 1124.59 754.459 1124.59 752.78C1124.59 751.497 1124.15 750.46 1123.26 749.67C1122.42 748.88 1121.01 748.287 1119.04 747.893L1111.93 746.485C1108.77 745.794 1106.37 744.609 1104.74 742.931C1103.11 741.252 1102.3 739.104 1102.3 736.488C1102.3 734.266 1102.89 732.291 1104.08 730.563C1105.31 728.835 1107.04 727.478 1109.26 726.49C1111.53 725.503 1114.17 725.009 1117.18 725.009C1119.95 725.009 1122.52 725.404 1124.89 726.194C1127.26 726.984 1129.23 728.119 1130.81 729.601L1128.44 734.562C1126.91 733.279 1125.18 732.291 1123.26 731.6C1121.33 730.86 1119.38 730.489 1117.41 730.489C1114.64 730.489 1112.59 731.008 1111.26 732.044C1109.93 733.081 1109.26 734.439 1109.26 736.118C1109.26 737.401 1109.66 738.463 1110.45 739.302C1111.29 740.092 1112.59 740.709 1114.37 741.153L1121.48 742.56C1124.84 743.252 1127.36 744.387 1129.03 745.967C1130.71 747.547 1131.55 749.67 1131.55 752.336C1131.55 754.656 1130.91 756.681 1129.63 758.409C1128.34 760.136 1126.57 761.445 1124.29 762.333C1122.02 763.222 1119.36 763.667 1116.3 763.667ZM1140.37 763V708.495H1147.85V733.6H1146.81C1147.9 730.786 1149.65 728.663 1152.07 727.231C1154.49 725.75 1157.28 725.009 1160.44 725.009C1164.88 725.009 1168.19 726.243 1170.36 728.712C1172.53 731.131 1173.62 734.809 1173.62 739.746V763H1166.14V740.191C1166.14 736.982 1165.5 734.661 1164.21 733.229C1162.98 731.748 1161 731.008 1158.29 731.008C1155.13 731.008 1152.59 731.995 1150.66 733.97C1148.79 735.895 1147.85 738.463 1147.85 741.672V763H1140.37Z" fill="white"/>
<path d="M965.611 824.689C963.512 824.689 961.612 824.43 959.908 823.912C958.205 823.369 956.724 822.603 955.465 821.616L956.761 818.58C957.6 819.222 958.464 819.752 959.353 820.172C960.266 820.592 961.229 820.912 962.241 821.135C963.278 821.332 964.401 821.431 965.611 821.431C967.684 821.431 969.202 821.061 970.165 820.32C971.153 819.579 971.646 818.604 971.646 817.395C971.646 816.358 971.301 815.556 970.609 814.988C969.943 814.42 968.758 813.964 967.055 813.618L963.019 812.803C960.624 812.31 958.834 811.507 957.65 810.396C956.489 809.261 955.909 807.718 955.909 805.768C955.909 804.188 956.329 802.806 957.168 801.621C958.008 800.436 959.168 799.523 960.649 798.881C962.155 798.239 963.907 797.918 965.907 797.918C967.758 797.918 969.462 798.19 971.017 798.733C972.572 799.251 973.88 800.029 974.942 801.065L973.683 803.991C972.572 803.028 971.387 802.324 970.128 801.88C968.869 801.411 967.437 801.176 965.833 801.176C963.932 801.176 962.439 801.571 961.352 802.361C960.291 803.151 959.76 804.225 959.76 805.583C959.76 806.669 960.093 807.521 960.76 808.138C961.451 808.755 962.587 809.224 964.167 809.545L968.203 810.322C970.696 810.841 972.535 811.643 973.72 812.729C974.905 813.791 975.497 815.259 975.497 817.136C975.497 818.641 975.09 819.962 974.275 821.098C973.485 822.233 972.35 823.122 970.869 823.764C969.388 824.381 967.635 824.689 965.611 824.689ZM988.524 824.689C985.513 824.689 983.143 823.838 981.415 822.134C979.687 820.431 978.823 818.074 978.823 815.062C978.823 813.112 979.193 811.409 979.934 809.952C980.699 808.496 981.748 807.372 983.081 806.583C984.439 805.768 986.006 805.361 987.784 805.361C989.536 805.361 991.005 805.731 992.19 806.471C993.375 807.212 994.276 808.261 994.893 809.619C995.51 810.952 995.819 812.532 995.819 814.358V815.543H981.748V813.396H993.264L992.634 813.877C992.634 812.026 992.215 810.594 991.375 809.582C990.561 808.545 989.376 808.027 987.821 808.027C986.093 808.027 984.76 808.631 983.822 809.841C982.884 811.026 982.414 812.668 982.414 814.766V815.136C982.414 817.333 982.945 818.987 984.007 820.098C985.093 821.209 986.623 821.764 988.598 821.764C989.684 821.764 990.696 821.616 991.635 821.32C992.597 820.999 993.511 820.48 994.375 819.765L995.597 822.32C994.733 823.085 993.683 823.677 992.449 824.097C991.215 824.492 989.907 824.689 988.524 824.689ZM1000.11 824.356V810.174C1000.11 809.458 1000.07 808.73 999.999 807.99C999.95 807.224 999.888 806.459 999.814 805.694H1003.44L1003.78 809.619H1003.33C1003.85 808.261 1004.64 807.212 1005.7 806.471C1006.79 805.731 1008.08 805.361 1009.59 805.361C1011.12 805.361 1012.37 805.731 1013.33 806.471C1014.32 807.187 1015 808.298 1015.37 809.804H1014.77C1015.27 808.446 1016.11 807.372 1017.29 806.583C1018.48 805.768 1019.85 805.361 1021.4 805.361C1023.47 805.361 1025.03 805.965 1026.07 807.175C1027.1 808.385 1027.62 810.261 1027.62 812.803V824.356H1023.88V812.988C1023.88 811.359 1023.6 810.187 1023.03 809.471C1022.49 808.73 1021.6 808.36 1020.36 808.36C1018.93 808.36 1017.8 808.854 1016.96 809.841C1016.12 810.828 1015.7 812.161 1015.7 813.84V824.356H1011.96V812.988C1011.96 811.359 1011.68 810.187 1011.11 809.471C1010.56 808.73 1009.68 808.36 1008.44 808.36C1007.01 808.36 1005.89 808.854 1005.07 809.841C1004.26 810.828 1003.85 812.161 1003.85 813.84V824.356H1000.11ZM1032.98 824.356V805.694H1036.72V824.356H1032.98ZM1032.68 801.806V797.918H1037.02V801.806H1032.68ZM1042.05 815.691V812.692H1052.9V815.691H1042.05ZM1068.18 824.689C1066.55 824.689 1065.13 824.282 1063.92 823.467C1062.71 822.653 1061.91 821.542 1061.52 820.135H1061.92V824.356H1058.22V797.103H1061.96V809.841H1061.52C1061.93 808.459 1062.74 807.372 1063.92 806.583C1065.13 805.768 1066.55 805.361 1068.18 805.361C1069.83 805.361 1071.28 805.756 1072.51 806.546C1073.75 807.311 1074.7 808.422 1075.36 809.878C1076.06 811.31 1076.4 813.038 1076.4 815.062C1076.4 817.062 1076.06 818.79 1075.36 820.246C1074.7 821.678 1073.73 822.776 1072.48 823.541C1071.24 824.307 1069.81 824.689 1068.18 824.689ZM1067.25 821.764C1068.86 821.764 1070.16 821.209 1071.14 820.098C1072.13 818.962 1072.62 817.284 1072.62 815.062C1072.62 812.816 1072.13 811.137 1071.14 810.026C1070.16 808.891 1068.86 808.323 1067.25 808.323C1065.63 808.323 1064.32 808.891 1063.33 810.026C1062.37 811.137 1061.89 812.803 1061.89 815.025C1061.89 817.247 1062.37 818.925 1063.33 820.061C1064.32 821.196 1065.63 821.764 1067.25 821.764ZM1088.78 824.689C1086.93 824.689 1085.33 824.307 1083.97 823.541C1082.61 822.752 1081.56 821.641 1080.82 820.209C1080.08 818.752 1079.71 817.025 1079.71 815.025C1079.71 813.025 1080.08 811.31 1080.82 809.878C1081.56 808.422 1082.61 807.311 1083.97 806.546C1085.33 805.756 1086.93 805.361 1088.78 805.361C1090.63 805.361 1092.24 805.756 1093.6 806.546C1094.98 807.311 1096.04 808.422 1096.78 809.878C1097.55 811.31 1097.93 813.025 1097.93 815.025C1097.93 817.025 1097.55 818.752 1096.78 820.209C1096.04 821.641 1094.98 822.752 1093.6 823.541C1092.24 824.307 1090.63 824.689 1088.78 824.689ZM1088.78 821.764C1090.41 821.764 1091.71 821.196 1092.67 820.061C1093.63 818.925 1094.11 817.247 1094.11 815.025C1094.11 812.803 1093.63 811.137 1092.67 810.026C1091.71 808.891 1090.41 808.323 1088.78 808.323C1087.18 808.323 1085.89 808.891 1084.93 810.026C1083.97 811.137 1083.49 812.803 1083.49 815.025C1083.49 817.247 1083.96 818.925 1084.89 820.061C1085.86 821.196 1087.15 821.764 1088.78 821.764ZM1102.3 824.356V797.103H1106.04V824.356H1102.3ZM1118.67 824.689C1117.04 824.689 1115.59 824.307 1114.33 823.541C1113.1 822.776 1112.14 821.665 1111.45 820.209C1110.78 818.752 1110.45 817.025 1110.45 815.025C1110.45 813.001 1110.78 811.273 1111.45 809.841C1112.14 808.409 1113.1 807.311 1114.33 806.546C1115.59 805.756 1117.04 805.361 1118.67 805.361C1120.27 805.361 1121.68 805.768 1122.89 806.583C1124.12 807.372 1124.94 808.459 1125.33 809.841H1124.89V797.103H1128.63V824.356H1124.92V820.135H1125.37C1124.95 821.542 1124.13 822.653 1122.92 823.467C1121.72 824.282 1120.3 824.689 1118.67 824.689ZM1119.59 821.764C1121.2 821.764 1122.49 821.196 1123.48 820.061C1124.47 818.925 1124.96 817.247 1124.96 815.025C1124.96 812.803 1124.47 811.137 1123.48 810.026C1122.49 808.891 1121.2 808.323 1119.59 808.323C1117.96 808.323 1116.65 808.891 1115.67 810.026C1114.7 811.137 1114.22 812.803 1114.22 815.025C1114.22 817.247 1114.7 818.925 1115.67 820.061C1116.65 821.196 1117.96 821.764 1119.59 821.764Z" fill="white"/>
<path d="M956.71 883.356V858.883H959.557L969.207 880.614H968.166L977.816 858.883H980.628V883.356H977.677V863.187H978.753L969.693 883.356H967.645L958.585 863.187H959.661V883.356H956.71ZM994.212 883.669C991.435 883.669 989.237 882.87 987.617 881.273C986.02 879.676 985.222 877.478 985.222 874.678C985.222 872.826 985.569 871.229 986.263 869.887C986.98 868.522 987.964 867.469 989.214 866.728C990.463 865.964 991.921 865.583 993.588 865.583C995.184 865.583 996.538 865.93 997.649 866.624C998.76 867.295 999.605 868.256 1000.18 869.505C1000.76 870.755 1001.05 872.236 1001.05 873.949V874.99H987.686V873.115H998.899L998.309 873.567C998.309 871.762 997.904 870.362 997.094 869.366C996.307 868.371 995.138 867.874 993.588 867.874C991.898 867.874 990.591 868.464 989.665 869.644C988.739 870.801 988.276 872.386 988.276 874.4V874.712C988.276 876.841 988.797 878.45 989.838 879.538C990.903 880.625 992.373 881.169 994.247 881.169C995.289 881.169 996.261 881.019 997.163 880.718C998.066 880.417 998.933 879.919 999.767 879.225L1000.81 881.412C1000.02 882.13 999.038 882.685 997.857 883.078C996.7 883.472 995.485 883.669 994.212 883.669ZM1011.84 883.669C1010.32 883.669 1008.97 883.31 1007.82 882.592C1006.66 881.875 1005.76 880.834 1005.11 879.468C1004.46 878.103 1004.14 876.483 1004.14 874.608C1004.14 872.734 1004.46 871.125 1005.11 869.783C1005.76 868.418 1006.66 867.376 1007.82 866.659C1008.97 865.941 1010.32 865.583 1011.84 865.583C1013.37 865.583 1014.7 865.964 1015.84 866.728C1016.99 867.492 1017.77 868.545 1018.16 869.887H1017.75V857.807H1020.9V883.356H1017.78V879.295H1018.16C1017.79 880.66 1017.03 881.736 1015.87 882.523C1014.74 883.287 1013.39 883.669 1011.84 883.669ZM1012.57 881.169C1014.15 881.169 1015.41 880.614 1016.36 879.503C1017.33 878.392 1017.82 876.76 1017.82 874.608C1017.82 872.456 1017.33 870.836 1016.36 869.748C1015.41 868.661 1014.15 868.117 1012.57 868.117C1011 868.117 1009.73 868.661 1008.75 869.748C1007.81 870.836 1007.33 872.456 1007.33 874.608C1007.33 876.76 1007.81 878.392 1008.75 879.503C1009.73 880.614 1011 881.169 1012.57 881.169ZM1026.2 883.356V865.895H1029.36V883.356H1026.2ZM1025.92 862.076V858.674H1029.67V862.076H1025.92ZM1040.85 883.669C1038.75 883.669 1037.16 883.102 1036.1 881.968C1035.06 880.834 1034.53 879.086 1034.53 876.726V865.895H1037.69V876.656C1037.69 878.184 1038.01 879.306 1038.63 880.024C1039.26 880.741 1040.23 881.1 1041.55 881.1C1042.98 881.1 1044.14 880.625 1045.02 879.676C1045.92 878.704 1046.37 877.42 1046.37 875.823V865.895H1049.53V883.356H1046.48V879.503H1046.93C1046.44 880.822 1045.67 881.852 1044.6 882.592C1043.54 883.31 1042.29 883.669 1040.85 883.669ZM1054.84 883.356V870.026C1054.84 869.355 1054.82 868.672 1054.77 867.978C1054.73 867.284 1054.66 866.589 1054.57 865.895H1057.62L1057.97 869.644H1057.55C1058.01 868.348 1058.75 867.353 1059.77 866.659C1060.79 865.941 1062.01 865.583 1063.42 865.583C1064.85 865.583 1066.03 865.93 1066.96 866.624C1067.88 867.295 1068.51 868.36 1068.83 869.818H1068.31C1068.75 868.522 1069.53 867.492 1070.64 866.728C1071.75 865.964 1073.04 865.583 1074.53 865.583C1076.45 865.583 1077.89 866.15 1078.87 867.284C1079.84 868.394 1080.32 870.13 1080.32 872.491V883.356H1077.16V872.664C1077.16 871.067 1076.89 869.922 1076.33 869.228C1075.78 868.51 1074.9 868.151 1073.69 868.151C1072.28 868.151 1071.17 868.637 1070.36 869.609C1069.55 870.558 1069.15 871.854 1069.15 873.497V883.356H1065.99V872.664C1065.99 871.067 1065.71 869.922 1065.15 869.228C1064.62 868.51 1063.74 868.151 1062.51 868.151C1061.1 868.151 1059.99 868.637 1059.18 869.609C1058.4 870.558 1058 871.854 1058 873.497V883.356H1054.84Z" fill="white"/>
<path d="M956.576 940.356V917.514H965.907C968.304 917.514 970.162 918.087 971.48 919.232C972.797 920.355 973.456 921.931 973.456 923.962C973.456 925.301 973.154 926.446 972.549 927.396C971.966 928.325 971.134 929.038 970.054 929.535C968.996 930.031 967.754 930.28 966.328 930.28L966.911 929.859H967.559C968.445 929.859 969.233 930.075 969.924 930.507C970.637 930.939 971.199 931.662 971.609 932.677L974.849 940.356H971.901L968.79 932.807C968.423 931.835 967.872 931.209 967.138 930.928C966.404 930.625 965.486 930.474 964.384 930.474H959.265V940.356H956.576ZM959.265 928.368H965.518C967.246 928.368 968.553 928.001 969.438 927.267C970.346 926.511 970.799 925.431 970.799 924.027C970.799 922.623 970.346 921.553 969.438 920.819C968.553 920.085 967.246 919.718 965.518 919.718H959.265V928.368ZM985.594 940.648C983.045 940.648 981.037 939.913 979.568 938.445C978.099 936.954 977.365 934.891 977.365 932.256C977.365 930.55 977.689 929.07 978.337 927.817C978.985 926.543 979.892 925.56 981.058 924.869C982.225 924.156 983.564 923.8 985.076 923.8C986.566 923.8 987.819 924.113 988.834 924.739C989.849 925.366 990.627 926.262 991.167 927.429C991.707 928.573 991.977 929.934 991.977 931.511V932.483H979.373V930.831H990.26L989.709 931.252C989.709 929.524 989.32 928.174 988.543 927.202C987.765 926.23 986.609 925.744 985.076 925.744C983.456 925.744 982.192 926.316 981.285 927.461C980.378 928.584 979.924 930.107 979.924 932.029V932.321C979.924 934.351 980.421 935.896 981.415 936.954C982.43 937.991 983.845 938.509 985.659 938.509C986.631 938.509 987.538 938.369 988.381 938.088C989.245 937.786 990.065 937.3 990.843 936.63L991.75 938.477C991.037 939.168 990.13 939.708 989.029 940.097C987.949 940.464 986.804 940.648 985.594 940.648ZM1003.15 947.581C1001.75 947.581 1000.45 947.408 999.265 947.063C998.077 946.717 997.008 946.188 996.058 945.475L996.835 943.499C997.505 943.974 998.163 944.352 998.811 944.633C999.459 944.914 1000.13 945.119 1000.82 945.248C1001.51 945.4 1002.25 945.475 1003.02 945.475C1004.62 945.475 1005.83 945.054 1006.65 944.212C1007.47 943.369 1007.88 942.17 1007.88 940.615V935.853H1008.21C1007.86 937.127 1007.15 938.142 1006.07 938.898C1004.99 939.632 1003.73 940 1002.28 940C1000.79 940 999.492 939.676 998.39 939.028C997.31 938.358 996.468 937.419 995.863 936.209C995.28 934.978 994.988 933.531 994.988 931.867C994.988 930.226 995.28 928.8 995.863 927.591C996.468 926.381 997.31 925.452 998.39 924.804C999.492 924.135 1000.79 923.8 1002.28 923.8C1003.75 923.8 1005.01 924.167 1006.07 924.901C1007.15 925.636 1007.86 926.651 1008.21 927.947L1007.88 927.623L1008.17 924.091H1010.73C1010.65 924.718 1010.58 925.355 1010.54 926.003C1010.5 926.629 1010.48 927.245 1010.48 927.85V940.259C1010.48 942.678 1009.85 944.503 1008.6 945.734C1007.36 946.966 1005.55 947.581 1003.15 947.581ZM1002.76 937.861C1004.34 937.861 1005.58 937.343 1006.49 936.306C1007.4 935.248 1007.85 933.768 1007.85 931.867C1007.85 929.967 1007.4 928.498 1006.49 927.461C1005.58 926.424 1004.34 925.906 1002.76 925.906C1001.21 925.906 999.967 926.424 999.038 927.461C998.109 928.498 997.645 929.967 997.645 931.867C997.645 933.768 998.109 935.248 999.038 936.306C999.967 937.343 1001.21 937.861 1002.76 937.861ZM1021.25 940.648C1019.33 940.648 1017.87 940.118 1016.88 939.06C1015.9 938.002 1015.42 936.382 1015.42 934.2V924.091H1018.04V934.135C1018.04 935.626 1018.34 936.727 1018.95 937.44C1019.55 938.131 1020.49 938.477 1021.77 938.477C1023.19 938.477 1024.34 938.013 1025.2 937.084C1026.07 936.155 1026.5 934.913 1026.5 933.358V924.091H1029.12V940.356H1026.56V936.695H1026.98C1026.53 937.948 1025.8 938.92 1024.78 939.611C1023.79 940.302 1022.61 940.648 1021.25 940.648ZM1034.21 940.356V916.51H1036.84V940.356H1034.21ZM1048.12 940.648C1046.68 940.648 1045.41 940.313 1044.33 939.643C1043.25 938.952 1042.41 937.98 1041.8 936.727C1041.22 935.475 1040.93 933.973 1040.93 932.224C1040.93 930.453 1041.22 928.941 1041.8 927.688C1042.41 926.435 1043.25 925.474 1044.33 924.804C1045.41 924.135 1046.68 923.8 1048.12 923.8C1049.59 923.8 1050.86 924.178 1051.91 924.934C1052.99 925.668 1053.71 926.673 1054.05 927.947H1053.66L1054.02 924.091H1056.55C1056.48 924.718 1056.42 925.355 1056.35 926.003C1056.31 926.629 1056.29 927.245 1056.29 927.85V940.356H1053.66V936.533H1054.02C1053.67 937.807 1052.96 938.812 1051.88 939.546C1050.8 940.28 1049.55 940.648 1048.12 940.648ZM1048.64 938.509C1050.2 938.509 1051.43 937.98 1052.33 936.922C1053.24 935.842 1053.7 934.276 1053.7 932.224C1053.7 930.15 1053.24 928.584 1052.33 927.526C1051.43 926.446 1050.2 925.906 1048.64 925.906C1047.11 925.906 1045.88 926.446 1044.95 927.526C1044.04 928.584 1043.59 930.15 1043.59 932.224C1043.59 934.276 1044.04 935.842 1044.95 936.922C1045.88 937.98 1047.11 938.509 1048.64 938.509ZM1061.3 940.356V928.012C1061.3 927.364 1061.28 926.705 1061.23 926.035C1061.21 925.366 1061.17 924.718 1061.1 924.091H1063.63L1063.95 928.044L1063.5 928.077C1063.72 927.105 1064.09 926.305 1064.63 925.679C1065.17 925.053 1065.81 924.588 1066.55 924.286C1067.28 923.962 1068.05 923.8 1068.85 923.8C1069.17 923.8 1069.45 923.811 1069.69 923.832C1069.95 923.854 1070.19 923.908 1070.4 923.994L1070.37 926.327C1070.04 926.219 1069.74 926.154 1069.46 926.133C1069.2 926.089 1068.9 926.068 1068.55 926.068C1067.6 926.068 1066.77 926.295 1066.06 926.748C1065.37 927.202 1064.84 927.785 1064.47 928.498C1064.13 929.211 1063.95 929.967 1063.95 930.766V940.356H1061.3Z" fill="white"/>
</svg>
