<svg width="40" height="33" viewBox="0 0 40 33" fill="none" xmlns="http://www.w3.org/2000/svg">
<path d="M38.3327 1.89908C36.7367 3.02488 34.9695 3.88593 33.0994 4.44908C32.0956 3.29493 30.7616 2.4769 29.2777 2.10563C27.7939 1.73435 26.2318 1.82774 24.8028 2.37317C23.3738 2.9186 22.1468 3.88975 21.2877 5.15528C20.4286 6.4208 19.9788 7.91964 19.9993 9.44908V11.1157C17.0704 11.1917 14.1681 10.5421 11.551 9.22483C8.93392 7.90755 6.68321 5.96348 4.99935 3.56575C4.99935 3.56575 -1.66732 18.5657 13.3327 25.2324C9.90023 27.5624 5.81128 28.7306 1.66602 28.5657C16.666 36.8991 34.9994 28.5657 34.9994 9.39908C34.9978 8.93484 34.9532 8.47174 34.866 8.01575C36.567 6.33824 37.7674 4.22027 38.3327 1.89908V1.89908Z" stroke="#121212" stroke-width="2" stroke-linecap="round" stroke-linejoin="round"/>
</svg>
