<svg width="306" height="214" viewBox="0 0 306 214" fill="none" xmlns="http://www.w3.org/2000/svg">
<path d="M179.338 71.1415V111.377C179.541 114.185 178.626 116.96 176.792 119.095C174.957 121.231 172.352 122.555 169.546 122.777H134.066L111.798 137.128V122.777H108.78C105.973 122.555 103.369 121.231 101.534 119.095C99.6997 116.96 98.7845 114.185 98.9881 111.377V71.1415C98.7839 68.3266 99.6971 65.5446 101.53 63.3982C103.363 61.2518 105.968 59.9139 108.78 59.6743H170.082C172.798 60.0427 175.269 61.4359 176.99 63.5681C178.711 65.7002 179.551 68.4099 179.338 71.1415Z" fill="#FD6C5E"/>
<path d="M138.492 88.1098C142.233 88.1098 145.266 85.0774 145.266 81.3367C145.266 77.5961 142.233 74.5637 138.492 74.5637C134.751 74.5637 131.718 77.5961 131.718 81.3367C131.718 85.0774 134.751 88.1098 138.492 88.1098Z" fill="white"/>
<path d="M134.737 90.3899H143.053C144.832 90.3899 146.538 91.0964 147.796 92.354C149.054 93.6116 149.76 95.3173 149.76 97.0959V106.35C149.76 107.008 149.499 107.639 149.033 108.105C148.568 108.57 147.937 108.831 147.279 108.831H130.176C129.518 108.831 128.887 108.57 128.421 108.105C127.956 107.639 127.694 107.008 127.694 106.35V97.4312C127.694 95.6526 128.401 93.9469 129.659 92.6893C130.917 91.4317 132.623 90.7252 134.401 90.7252L134.737 90.3899Z" fill="white"/>
<path d="M170.963 47.8426L166.586 30.3431C166.249 28.9955 164.883 28.1763 163.536 28.5132C162.188 28.8502 161.369 30.2157 161.706 31.5632L166.083 49.0627C166.42 50.4103 167.785 51.2295 169.133 50.8926C170.481 50.5557 171.3 49.1901 170.963 47.8426Z" fill="#FD6C5E"/>
<path d="M202.728 51.706L185.381 56.6663C184.045 57.0481 183.273 58.4402 183.654 59.7755C184.036 61.1108 185.429 61.8837 186.764 61.5019L204.111 56.5416C205.446 56.1598 206.219 54.7677 205.837 53.4324C205.455 52.0971 204.063 51.3241 202.728 51.706Z" fill="#FD6C5E"/>
<path d="M185.822 34.8157L177.289 48.4627C176.553 49.6404 176.911 51.192 178.089 51.9282C179.267 52.6644 180.818 52.3064 181.555 51.1286L190.087 37.4817C190.823 36.3039 190.465 34.7523 189.287 34.0162C188.11 33.28 186.558 33.6379 185.822 34.8157Z" fill="#FD6C5E"/>
<path d="M48.1141 185.617C46.4519 185.617 44.9975 185.231 43.7509 184.459C42.5339 183.688 41.5841 182.604 40.9014 181.209C40.2484 179.814 39.9219 178.152 39.9219 176.223V161.797H44.5078V174.976C44.5078 176.341 44.7155 177.529 45.1311 178.538C45.5763 179.517 46.1996 180.274 47.0011 180.808C47.8321 181.343 48.8265 181.61 49.9841 181.61C50.8449 181.61 51.6315 181.476 52.3438 181.209C53.0562 180.912 53.6647 180.512 54.1693 180.007C54.7036 179.502 55.1191 178.894 55.4159 178.182C55.7127 177.469 55.8612 176.697 55.8612 175.866V161.797H60.447V185.172H55.8612V180.274L56.6626 179.74C56.3064 180.838 55.6979 181.832 54.8371 182.723C54.0061 183.613 53.0117 184.326 51.8541 184.86C50.6965 185.365 49.4498 185.617 48.1141 185.617ZM69.417 185.172V159.17C69.417 157.835 69.7139 156.647 70.3075 155.608C70.9012 154.569 71.7174 153.753 72.7563 153.16C73.7952 152.566 74.9973 152.269 76.3626 152.269C77.3125 152.269 78.203 152.447 79.034 152.803C79.8652 153.16 80.533 153.635 81.0376 154.228L79.4793 157.745C79.0934 157.389 78.6631 157.107 78.1881 156.9C77.7429 156.662 77.3125 156.543 76.8969 156.543C76.2736 156.543 75.7393 156.647 75.2941 156.855C74.8786 157.033 74.5669 157.33 74.3591 157.745C74.1514 158.131 74.0474 158.606 74.0474 159.17V185.172H71.7322C71.3464 185.172 70.9606 185.172 70.5746 185.172C70.1888 185.172 69.803 185.172 69.417 185.172ZM65.6771 166.427V162.198H79.5683V166.427H65.6771ZM94.3966 185.617C91.9924 185.617 89.8553 185.112 87.9853 184.103C86.145 183.064 84.6906 181.654 83.622 179.873C82.5831 178.093 82.0637 176.044 82.0637 173.729C82.0637 171.889 82.3605 170.212 82.9542 168.698C83.5478 167.184 84.3641 165.878 85.403 164.78C86.4715 163.652 87.733 162.791 89.1874 162.198C90.6715 161.574 92.2743 161.263 93.9959 161.263C95.5097 161.263 96.9196 161.56 98.2256 162.153C99.5316 162.717 100.66 163.504 101.609 164.513C102.589 165.522 103.331 166.724 103.836 168.119C104.37 169.485 104.622 170.984 104.592 172.616L104.548 174.575H85.4475L84.4235 170.924H100.585L99.9175 171.681V170.613C99.8285 169.633 99.5019 168.758 98.938 167.986C98.374 167.214 97.6616 166.606 96.8009 166.16C95.9401 165.715 95.0051 165.493 93.9959 165.493C92.3931 165.493 91.0425 165.804 89.9443 166.427C88.846 167.021 88.015 167.912 87.451 169.099C86.887 170.256 86.6051 171.696 86.6051 173.418C86.6051 175.05 86.9464 176.475 87.6291 177.692C88.3118 178.879 89.2765 179.799 90.5231 180.452C91.7698 181.105 93.2093 181.432 94.8419 181.432C95.9995 181.432 97.068 181.239 98.0475 180.853C99.0567 180.467 100.14 179.77 101.298 178.76L103.613 182.011C102.901 182.723 102.025 183.346 100.986 183.881C99.9768 184.415 98.8935 184.845 97.7359 185.172C96.6079 185.469 95.4949 185.617 94.3966 185.617ZM120.484 185.617C118.08 185.617 115.943 185.112 114.073 184.103C112.233 183.064 110.778 181.654 109.71 179.873C108.671 178.093 108.152 176.044 108.152 173.729C108.152 171.889 108.448 170.212 109.042 168.698C109.636 167.184 110.452 165.878 111.491 164.78C112.559 163.652 113.821 162.791 115.275 162.198C116.759 161.574 118.362 161.263 120.084 161.263C121.598 161.263 123.007 161.56 124.313 162.153C125.619 162.717 126.747 163.504 127.697 164.513C128.677 165.522 129.419 166.724 129.924 168.119C130.458 169.485 130.71 170.984 130.681 172.616L130.636 174.575H111.535L110.511 170.924H126.673L126.005 171.681V170.613C125.916 169.633 125.59 168.758 125.026 167.986C124.462 167.214 123.749 166.606 122.889 166.16C122.028 165.715 121.093 165.493 120.084 165.493C118.481 165.493 117.13 165.804 116.032 166.427C114.934 167.021 114.103 167.912 113.539 169.099C112.975 170.256 112.693 171.696 112.693 173.418C112.693 175.05 113.034 176.475 113.717 177.692C114.4 178.879 115.364 179.799 116.611 180.452C117.858 181.105 119.297 181.432 120.93 181.432C122.087 181.432 123.156 181.239 124.135 180.853C125.145 180.467 126.228 179.77 127.386 178.76L129.701 182.011C128.989 182.723 128.113 183.346 127.074 183.881C126.065 184.415 124.981 184.845 123.824 185.172C122.696 185.469 121.583 185.617 120.484 185.617ZM145.415 185.617C143.278 185.617 141.363 185.098 139.672 184.059C138.009 182.99 136.688 181.55 135.709 179.74C134.729 177.9 134.24 175.807 134.24 173.462C134.24 171.117 134.714 169.039 135.664 167.229C136.644 165.389 137.964 163.949 139.627 162.91C141.289 161.842 143.174 161.307 145.281 161.307C146.439 161.307 147.552 161.5 148.621 161.886C149.719 162.242 150.698 162.747 151.559 163.4C152.419 164.023 153.087 164.721 153.563 165.493C154.067 166.235 154.32 166.991 154.32 167.763L152.984 167.852V152.225H157.57V185.172H152.984V179.606H153.874C153.874 180.319 153.637 181.031 153.162 181.743C152.687 182.426 152.049 183.064 151.248 183.658C150.475 184.252 149.57 184.726 148.532 185.083C147.522 185.439 146.484 185.617 145.415 185.617ZM146.038 181.654C147.433 181.654 148.665 181.298 149.734 180.586C150.802 179.873 151.633 178.909 152.227 177.692C152.85 176.445 153.162 175.035 153.162 173.462C153.162 171.889 152.85 170.494 152.227 169.277C151.633 168.03 150.802 167.051 149.734 166.338C148.665 165.626 147.433 165.27 146.038 165.27C144.643 165.27 143.411 165.626 142.343 166.338C141.274 167.051 140.428 168.03 139.805 169.277C139.211 170.494 138.915 171.889 138.915 173.462C138.915 175.035 139.211 176.445 139.805 177.692C140.428 178.909 141.274 179.873 142.343 180.586C143.411 181.298 144.643 181.654 146.038 181.654ZM176.171 185.617C175.162 185.617 174.152 185.454 173.143 185.127C172.164 184.801 171.258 184.37 170.427 183.836C169.626 183.272 168.943 182.664 168.379 182.011C167.845 181.328 167.489 180.645 167.311 179.963L168.468 179.339V185.038H163.882V152.225H168.468V167.14L167.756 166.739C167.905 166.056 168.23 165.403 168.735 164.78C169.24 164.127 169.878 163.548 170.65 163.044C171.451 162.509 172.312 162.094 173.232 161.797C174.152 161.471 175.087 161.307 176.037 161.307C178.145 161.307 180.015 161.827 181.647 162.866C183.279 163.905 184.57 165.344 185.521 167.184C186.471 168.995 186.945 171.073 186.945 173.418C186.945 175.762 186.471 177.855 185.521 179.695C184.601 181.536 183.324 182.99 181.692 184.059C180.059 185.098 178.219 185.617 176.171 185.617ZM175.414 181.432C176.779 181.432 177.996 181.09 179.065 180.408C180.133 179.695 180.979 178.746 181.603 177.558C182.226 176.341 182.537 174.961 182.537 173.418C182.537 171.904 182.226 170.553 181.603 169.366C181.009 168.149 180.178 167.199 179.109 166.517C178.041 165.834 176.809 165.493 175.414 165.493C174.018 165.493 172.787 165.834 171.718 166.517C170.65 167.199 169.804 168.149 169.181 169.366C168.557 170.553 168.246 171.904 168.246 173.418C168.246 174.961 168.557 176.341 169.181 177.558C169.804 178.746 170.65 179.695 171.718 180.408C172.787 181.09 174.018 181.432 175.414 181.432ZM200.92 185.617C198.991 185.617 197.225 185.083 195.622 184.014C194.049 182.946 192.788 181.491 191.837 179.651C190.887 177.811 190.413 175.733 190.413 173.418C190.413 171.073 190.887 168.995 191.837 167.184C192.817 165.344 194.123 163.905 195.756 162.866C197.418 161.827 199.273 161.307 201.321 161.307C202.538 161.307 203.651 161.485 204.66 161.842C205.669 162.198 206.545 162.702 207.287 163.355C208.059 163.979 208.682 164.706 209.157 165.537C209.662 166.368 209.974 167.259 210.092 168.208L209.068 167.852V161.797H213.698V185.172H209.068V179.606L210.136 179.295C209.958 180.096 209.587 180.883 209.023 181.654C208.489 182.396 207.792 183.064 206.931 183.658C206.1 184.252 205.165 184.726 204.126 185.083C203.117 185.439 202.048 185.617 200.92 185.617ZM202.122 181.387C203.518 181.387 204.749 181.046 205.818 180.363C206.886 179.681 207.717 178.746 208.311 177.558C208.934 176.341 209.246 174.961 209.246 173.418C209.246 171.904 208.934 170.553 208.311 169.366C207.717 168.179 206.886 167.244 205.818 166.561C204.749 165.878 203.518 165.537 202.122 165.537C200.757 165.537 199.54 165.878 198.471 166.561C197.432 167.244 196.601 168.179 195.978 169.366C195.384 170.553 195.088 171.904 195.088 173.418C195.088 174.961 195.384 176.341 195.978 177.558C196.601 178.746 197.432 179.681 198.471 180.363C199.54 181.046 200.757 181.387 202.122 181.387ZM230.03 185.617C227.863 185.617 225.919 185.083 224.198 184.014C222.506 182.946 221.155 181.491 220.146 179.651C219.167 177.811 218.677 175.748 218.677 173.462C218.677 171.177 219.167 169.114 220.146 167.273C221.155 165.433 222.506 163.979 224.198 162.91C225.919 161.842 227.863 161.307 230.03 161.307C232.108 161.307 233.993 161.738 235.685 162.598C237.406 163.43 238.712 164.572 239.603 166.027L237.065 169.143C236.589 168.461 235.981 167.837 235.24 167.273C234.497 166.709 233.711 166.264 232.88 165.938C232.048 165.611 231.247 165.448 230.476 165.448C229.051 165.448 227.774 165.804 226.647 166.517C225.548 167.199 224.672 168.149 224.02 169.366C223.366 170.583 223.04 171.948 223.04 173.462C223.04 174.976 223.381 176.341 224.064 177.558C224.746 178.746 225.652 179.695 226.78 180.408C227.907 181.12 229.154 181.476 230.52 181.476C231.321 181.476 232.093 181.343 232.835 181.076C233.606 180.808 234.349 180.408 235.061 179.873C235.774 179.339 236.442 178.686 237.065 177.914L239.603 181.031C238.653 182.367 237.288 183.465 235.507 184.326C233.755 185.187 231.93 185.617 230.03 185.617ZM248.114 177.87L247.891 172.883L259.067 161.797H265.255L248.114 177.87ZM243.929 185.172V152.225H248.515V185.172H243.929ZM259.69 185.172L250.874 174.887L254.124 171.904L265.567 185.172H259.69Z" fill="#FD6C5E"/>
</svg>
