<svg width="265" height="214" viewBox="0 0 265 214" fill="none" xmlns="http://www.w3.org/2000/svg">
<path d="M16.97 48.2213C14.2585 48.2213 11.8743 47.6759 9.81733 46.585C7.76037 45.4786 6.15531 43.9281 5.00217 41.9335C3.84902 39.9389 3.27244 37.5936 3.27244 34.8977V13.9073L9.72384 13.8606V34.851C9.72384 35.9574 9.91083 36.9625 10.2848 37.8663C10.6588 38.7701 11.1731 39.5493 11.8276 40.2038C12.4976 40.8583 13.269 41.3647 14.1416 41.7231C15.0299 42.0659 15.9726 42.2374 16.97 42.2374C17.9984 42.2374 18.949 42.0582 19.8217 41.6997C20.7099 41.3413 21.4813 40.8349 22.1357 40.1804C22.7902 39.5259 23.2967 38.7468 23.6551 37.8429C24.0291 36.9391 24.2161 35.9418 24.2161 34.851V13.8606H30.6675V34.8977C30.6675 37.5936 30.0909 39.9389 28.9378 41.9335C27.7846 43.9281 26.1796 45.4786 24.1226 46.585C22.0656 47.6759 19.6814 48.2213 16.97 48.2213ZM36.258 47.52L47.5713 30.5033L36.5853 13.8606H44.3924L51.545 25.0804L58.6041 13.8606H66.458L55.472 30.5033L66.7385 47.52H58.9314L51.545 35.9262L44.1119 47.52H36.258ZM72.3426 47.52V13.8606H83.2351C83.5 13.8606 84.0455 13.8684 84.8714 13.884C85.6973 13.8995 86.492 13.9541 87.2556 14.0476C89.967 14.3748 92.2655 15.3176 94.1511 16.8759C96.0366 18.4342 97.4703 20.4133 98.452 22.8131C99.4337 25.2129 99.9246 27.8386 99.9246 30.6903C99.9246 33.542 99.4337 36.1678 98.452 38.5675C97.4703 40.9673 96.0366 42.9464 94.1511 44.5047C92.2655 46.063 89.967 47.0058 87.2556 47.333C86.492 47.4265 85.6973 47.4811 84.8714 47.4966C84.0455 47.5122 83.5 47.52 83.2351 47.52H72.3426ZM78.794 41.5361H83.2351C83.6559 41.5361 84.2247 41.5283 84.9415 41.5127C85.6583 41.4816 86.305 41.4115 86.8816 41.3024C88.3464 41.0063 89.5385 40.3206 90.4579 39.2454C91.3929 38.1702 92.0785 36.8768 92.5148 35.3652C92.9668 33.8537 93.1927 32.2954 93.1927 30.6903C93.1927 29.0073 92.959 27.4101 92.4915 25.8985C92.0396 24.387 91.3461 23.1091 90.4111 22.0651C89.4762 21.021 88.2996 20.3587 86.8816 20.0782C86.305 19.9536 85.6583 19.8834 84.9415 19.8679C84.2247 19.8523 83.6559 19.8445 83.2351 19.8445H78.794V41.5361ZM107.403 47.52V13.8606H129.375V19.7977H113.761V26.9971H126.57V32.9343H113.761V41.5829H129.375V47.52H107.403ZM149.563 48.2213C147.07 48.2213 144.818 47.7849 142.808 46.9123C140.813 46.024 139.169 44.7618 137.876 43.1256C136.598 41.4738 135.788 39.5103 135.445 37.2352L142.083 36.2535C142.551 38.1858 143.517 39.6739 144.982 40.718C146.447 41.7621 148.114 42.2841 149.984 42.2841C151.028 42.2841 152.041 42.1205 153.023 41.7932C154.004 41.466 154.807 40.9829 155.43 40.344C156.069 39.7051 156.389 38.9182 156.389 37.9832C156.389 37.6404 156.334 37.3131 156.225 37.0014C156.131 36.6742 155.968 36.3703 155.734 36.0898C155.5 35.8093 155.165 35.5444 154.729 35.2951C154.308 35.0458 153.771 34.8198 153.116 34.6172L144.374 32.046C143.719 31.859 142.956 31.5941 142.083 31.2513C141.226 30.9085 140.392 30.4176 139.582 29.7787C138.772 29.1398 138.094 28.2983 137.549 27.2542C137.019 26.1946 136.754 24.8622 136.754 23.2572C136.754 20.9976 137.323 19.1199 138.46 17.6239C139.598 16.1279 141.117 15.0137 143.018 14.2813C144.919 13.5489 147.023 13.1905 149.329 13.2061C151.651 13.2373 153.724 13.6346 155.547 14.3982C157.37 15.1618 158.897 16.276 160.128 17.7408C161.36 19.19 162.248 20.9665 162.793 23.0702L155.921 24.2389C155.672 23.1481 155.212 22.2287 154.542 21.4807C153.872 20.7327 153.069 20.1639 152.134 19.7744C151.215 19.3848 150.249 19.1744 149.236 19.1432C148.239 19.1121 147.296 19.2523 146.408 19.564C145.535 19.8601 144.818 20.2964 144.257 20.873C143.712 21.4495 143.439 22.1352 143.439 22.9299C143.439 23.6623 143.665 24.2623 144.117 24.7298C144.569 25.1817 145.138 25.5479 145.823 25.8284C146.509 26.1089 147.21 26.3426 147.927 26.5296L153.771 28.1191C154.643 28.3528 155.609 28.6645 156.669 29.0541C157.729 29.4281 158.742 29.9579 159.708 30.6436C160.689 31.3136 161.492 32.2019 162.115 33.3083C162.754 34.4147 163.074 35.8171 163.074 37.5157C163.074 39.3233 162.692 40.905 161.928 42.2607C161.18 43.6009 160.167 44.7151 158.89 45.6033C157.612 46.476 156.163 47.1304 154.542 47.5668C152.937 48.0031 151.277 48.2213 149.563 48.2213ZM170.549 47.52V13.8606H176.907V47.52H170.549ZM199.809 48.2213C197.69 48.2213 195.672 47.8473 193.755 47.0993C191.838 46.3357 190.14 45.2137 188.659 43.7333C187.195 42.2529 186.034 40.4219 185.177 38.2403C184.335 36.0587 183.914 33.542 183.914 30.6903C183.914 26.966 184.623 23.8026 186.041 21.2002C187.475 18.5823 189.392 16.5876 191.792 15.2163C194.207 13.845 196.879 13.1594 199.809 13.1594C204.141 13.1594 207.546 14.1645 210.024 16.1747C212.501 18.1849 214.161 21.0288 215.003 24.7064L208.504 25.6414C207.897 23.6779 206.899 22.1118 205.512 20.9431C204.141 19.7588 202.38 19.1588 200.23 19.1432C198.095 19.1121 196.318 19.5718 194.9 20.5224C193.482 21.4729 192.415 22.8209 191.698 24.5662C190.997 26.3115 190.646 28.3528 190.646 30.6903C190.646 33.0278 190.997 35.0536 191.698 36.7677C192.415 38.4818 193.482 39.8142 194.9 40.7648C196.318 41.7153 198.095 42.2062 200.23 42.2374C201.679 42.2685 202.988 42.0192 204.157 41.4894C205.341 40.9595 206.338 40.1259 207.149 38.9883C207.959 37.8507 208.536 36.3937 208.878 34.6172H203.549V29.7086H215.657C215.688 29.9112 215.712 30.2696 215.727 30.7838C215.743 31.298 215.751 31.5941 215.751 31.672C215.751 34.8977 215.096 37.7572 213.787 40.2505C212.478 42.7438 210.631 44.6995 208.247 46.1175C205.863 47.52 203.05 48.2213 199.809 48.2213ZM222.305 47.52V13.8606H228.757L243.389 36.3002V13.8606H249.841V47.52H243.389L228.757 25.0804V47.52H222.305Z" fill="#010101"/>
<path d="M3.27244 106.52V72.8606H6.42802L19.658 101.167L32.8179 72.8606H36.0203V106.497H32.7478V80.5275L20.7566 106.52H18.5361L6.56826 80.5275V106.52H3.27244ZM54.0337 106.52L65.6275 72.8606H70.1855L81.7793 106.52H78.203L67.1936 74.7773H68.5493L57.61 106.52H54.0337ZM59.1995 98.3623V95.1366H76.5902V98.3623H59.1995ZM110.566 107.221C108.212 107.221 106.093 106.832 104.208 106.053C102.338 105.258 100.787 104.136 99.5561 102.687C98.3406 101.237 97.5459 99.5154 97.1719 97.5208L100.678 96.9364C101.239 99.1181 102.423 100.832 104.231 102.079C106.039 103.31 108.197 103.925 110.706 103.925C112.358 103.925 113.838 103.668 115.147 103.154C116.456 102.624 117.484 101.876 118.232 100.91C118.98 99.944 119.354 98.7986 119.354 97.474C119.354 96.6014 119.199 95.8612 118.887 95.2535C118.575 94.6301 118.162 94.1159 117.648 93.7107C117.134 93.3056 116.573 92.9705 115.965 92.7056C115.357 92.4251 114.765 92.1992 114.189 92.0278L105.657 89.4799C104.628 89.1839 103.678 88.8099 102.805 88.358C101.933 87.8905 101.169 87.3373 100.514 86.6984C99.8755 86.0439 99.3769 85.2803 99.0185 84.4076C98.6601 83.535 98.4809 82.5377 98.4809 81.4157C98.4809 79.5146 98.9795 77.8705 99.9768 76.4837C100.974 75.0968 102.338 74.0293 104.067 73.2813C105.797 72.5333 107.768 72.1671 109.981 72.1827C112.225 72.1827 114.228 72.5801 115.988 73.3748C117.765 74.1696 119.23 75.3071 120.383 76.7875C121.536 78.2523 122.3 79.9898 122.674 82.0001L119.074 82.6545C118.84 81.1897 118.303 79.9197 117.461 78.8445C116.62 77.7693 115.544 76.9434 114.235 76.3668C112.942 75.7746 111.516 75.4708 109.958 75.4552C108.446 75.4552 107.098 75.7123 105.914 76.2265C104.745 76.7252 103.818 77.4108 103.132 78.2835C102.447 79.1561 102.104 80.1535 102.104 81.2754C102.104 82.413 102.416 83.3246 103.039 84.0103C103.678 84.6959 104.457 85.2335 105.376 85.6231C106.311 86.0127 107.215 86.3322 108.088 86.5815L114.679 88.5216C115.365 88.7086 116.168 88.9813 117.087 89.3397C118.022 89.6825 118.926 90.1812 119.798 90.8357C120.687 91.4746 121.419 92.3161 121.996 93.3601C122.572 94.4042 122.861 95.7287 122.861 97.3338C122.861 98.8921 122.549 100.287 121.926 101.518C121.318 102.749 120.453 103.785 119.331 104.627C118.225 105.468 116.923 106.107 115.427 106.543C113.947 106.995 112.326 107.221 110.566 107.221ZM150.429 106.52V76.1564H138.672V72.8606H165.623V76.1564H153.865V106.52H150.429ZM183.162 106.52V72.8606H204.199V76.1564H186.598V87.797H201.394V91.0928H186.598V103.224H204.199V106.52H183.162ZM223.615 106.52V72.8606H236.611C236.938 72.8606 237.304 72.8762 237.709 72.9073C238.13 72.9229 238.551 72.9697 238.972 73.0476C240.733 73.3125 242.221 73.928 243.436 74.8942C244.667 75.8447 245.595 77.0446 246.218 78.4939C246.857 79.9431 247.176 81.5482 247.176 83.309C247.176 85.8491 246.506 88.0541 245.166 89.9241C243.826 91.794 241.909 92.9705 239.416 93.4536L238.224 93.7341H227.051V106.52H223.615ZM243.997 106.52L237.359 92.8225L240.655 91.5603L247.948 106.52H243.997ZM227.051 90.4617H236.517C236.798 90.4617 237.125 90.4461 237.499 90.4149C237.873 90.3838 238.239 90.3292 238.598 90.2513C239.751 90.002 240.694 89.5267 241.426 88.8254C242.174 88.1242 242.727 87.2905 243.086 86.3244C243.46 85.3582 243.647 84.3531 243.647 83.309C243.647 82.265 243.46 81.2599 243.086 80.2937C242.727 79.312 242.174 78.4705 241.426 77.7693C240.694 77.068 239.751 76.5927 238.598 76.3434C238.239 76.2655 237.873 76.2187 237.499 76.2032C237.125 76.172 236.798 76.1564 236.517 76.1564H227.051V90.4617Z" fill="#8A8A8A"/>
<path d="M1.12572 147.197V145.914H2.40852V147.197H1.12572ZM4.65383 147.197V145.914H5.93662V147.197H4.65383ZM11.3169 147.393C10.6494 147.393 10.0472 147.279 9.51054 147.053C8.97822 146.826 8.53754 146.503 8.18847 146.084C7.84378 145.661 7.61907 145.161 7.51435 144.585L8.71861 144.395C8.87132 144.989 9.18766 145.453 9.66762 145.789C10.1519 146.121 10.7213 146.287 11.3758 146.287C11.7991 146.287 12.1809 146.221 12.5212 146.09C12.8659 145.955 13.1386 145.763 13.3393 145.514C13.54 145.266 13.6404 144.971 13.6404 144.631C13.6404 144.422 13.6033 144.243 13.5291 144.094C13.4593 143.942 13.3611 143.813 13.2346 143.708C13.1124 143.599 12.9728 143.507 12.8157 143.433C12.6586 143.359 12.495 143.298 12.3248 143.25L9.92287 142.537C9.66107 142.458 9.40801 142.36 9.16366 142.242C8.91932 142.12 8.70116 141.969 8.50917 141.79C8.31719 141.607 8.16448 141.389 8.05103 141.136C7.93759 140.879 7.88086 140.575 7.88086 140.226C7.88086 139.668 8.02485 139.192 8.31283 138.799C8.60517 138.402 9.00004 138.099 9.49745 137.89C9.99486 137.68 10.5555 137.578 11.1795 137.582C11.8122 137.586 12.3772 137.7 12.8746 137.922C13.3764 138.141 13.7909 138.455 14.1181 138.865C14.4498 139.275 14.6723 139.766 14.7857 140.337L13.5487 140.553C13.4833 140.17 13.3371 139.84 13.1102 139.565C12.8877 139.286 12.6085 139.072 12.2725 138.924C11.9365 138.771 11.5678 138.693 11.1664 138.688C10.7824 138.684 10.4356 138.745 10.1258 138.871C9.81597 138.998 9.56945 139.175 9.38619 139.402C9.20293 139.624 9.1113 139.882 9.1113 140.174C9.1113 140.462 9.19421 140.695 9.36001 140.874C9.52581 141.049 9.72871 141.188 9.96868 141.293C10.213 141.393 10.4508 141.476 10.6821 141.542L12.4754 142.059C12.6805 142.116 12.9161 142.194 13.1822 142.294C13.4527 142.395 13.7145 142.537 13.9676 142.72C14.2207 142.899 14.4301 143.139 14.5959 143.44C14.7617 143.736 14.8446 144.112 14.8446 144.565C14.8446 145.019 14.753 145.423 14.5697 145.776C14.3908 146.13 14.14 146.426 13.8171 146.666C13.4942 146.902 13.119 147.081 12.6914 147.203C12.2638 147.33 11.8056 147.393 11.3169 147.393ZM20.1641 147.197C19.7452 147.279 19.3307 147.312 18.9206 147.295C18.5148 147.282 18.1526 147.201 17.8341 147.053C17.5156 146.9 17.2734 146.664 17.1076 146.346C16.968 146.066 16.8916 145.785 16.8786 145.501C16.8698 145.213 16.8655 144.888 16.8655 144.526V138.165H18.0305V144.474C18.0305 144.762 18.0326 145.008 18.037 145.213C18.0457 145.419 18.0915 145.595 18.1744 145.744C18.3315 146.023 18.5802 146.186 18.9206 146.234C19.2653 146.282 19.6798 146.269 20.1641 146.195V147.197ZM15.4321 141.09V140.128H20.1641V141.09H15.4321ZM23.6084 147.393C23.0805 147.393 22.6376 147.297 22.2798 147.105C21.9264 146.909 21.6581 146.651 21.4748 146.333C21.2959 146.014 21.2065 145.665 21.2065 145.285C21.2065 144.915 21.2763 144.594 21.4159 144.323C21.5599 144.048 21.7606 143.822 22.018 143.643C22.2755 143.459 22.5831 143.315 22.9409 143.211C23.2768 143.119 23.6521 143.041 24.0666 142.975C24.4855 142.905 24.9087 142.842 25.3363 142.785C25.7639 142.729 26.1631 142.674 26.534 142.622L26.1151 142.864C26.1282 142.236 26.0017 141.771 25.7355 141.47C25.4737 141.169 25.02 141.018 24.3742 141.018C23.9466 141.018 23.5714 141.116 23.2485 141.313C22.93 141.505 22.7052 141.819 22.5743 142.255L21.4683 141.921C21.6384 141.302 21.9679 140.815 22.4565 140.462C22.9452 140.108 23.5888 139.932 24.3873 139.932C25.0287 139.932 25.5785 140.047 26.0366 140.279C26.4991 140.505 26.8307 140.85 27.0314 141.313C27.1318 141.531 27.195 141.769 27.2212 142.026C27.2474 142.279 27.2605 142.545 27.2605 142.825V147.197H26.2264V145.501L26.4686 145.658C26.2024 146.23 25.8293 146.662 25.3494 146.954C24.8738 147.247 24.2935 147.393 23.6084 147.393ZM23.7852 146.418C24.204 146.418 24.5662 146.344 24.8716 146.195C25.1814 146.042 25.4301 145.844 25.6177 145.6C25.8053 145.351 25.9275 145.08 25.9842 144.788C26.0497 144.57 26.0846 144.328 26.089 144.062C26.0977 143.791 26.102 143.584 26.102 143.44L26.5078 143.616C26.1282 143.669 25.7552 143.719 25.3886 143.767C25.0221 143.815 24.6753 143.867 24.348 143.924C24.0208 143.976 23.7262 144.04 23.4645 144.114C23.2725 144.175 23.0914 144.254 22.9212 144.35C22.7554 144.445 22.6202 144.57 22.5154 144.723C22.4151 144.871 22.3649 145.056 22.3649 145.279C22.3649 145.471 22.4129 145.654 22.5089 145.829C22.6093 146.003 22.762 146.145 22.967 146.254C23.1765 146.363 23.4492 146.418 23.7852 146.418ZM28.9622 147.197V140.128H30.0028V141.836L29.8326 141.614C29.9155 141.396 30.0224 141.195 30.1533 141.012C30.2886 140.828 30.4391 140.678 30.6049 140.56C30.7882 140.412 30.9954 140.298 31.2267 140.22C31.4579 140.141 31.6936 140.095 31.9335 140.082C32.1735 140.065 32.3982 140.08 32.6077 140.128V141.221C32.3633 141.156 32.095 141.138 31.8026 141.169C31.5103 141.199 31.2398 141.306 30.9911 141.489C30.7642 141.651 30.5875 141.847 30.4609 142.078C30.3388 142.31 30.2537 142.561 30.2057 142.831C30.1577 143.097 30.1337 143.37 30.1337 143.649V147.197H28.9622ZM37.7918 147.197C37.373 147.279 36.9584 147.312 36.5483 147.295C36.1425 147.282 35.7804 147.201 35.4618 147.053C35.1433 146.9 34.9012 146.664 34.7354 146.346C34.5957 146.066 34.5194 145.785 34.5063 145.501C34.4976 145.213 34.4932 144.888 34.4932 144.526V138.165H35.6582V144.474C35.6582 144.762 35.6604 145.008 35.6647 145.213C35.6735 145.419 35.7193 145.595 35.8022 145.744C35.9593 146.023 36.208 146.186 36.5483 146.234C36.893 146.282 37.3075 146.269 37.7918 146.195V147.197ZM33.0599 141.09V140.128H37.7918V141.09H33.0599ZM41.8474 147.197V137.772H44.7533C44.8493 137.772 45.0173 137.774 45.2573 137.778C45.4973 137.783 45.7263 137.8 45.9445 137.831C46.6732 137.927 47.2818 138.193 47.7705 138.629C48.2636 139.061 48.6345 139.611 48.8832 140.279C49.1319 140.946 49.2562 141.681 49.2562 142.484C49.2562 143.287 49.1319 144.022 48.8832 144.69C48.6345 145.357 48.2636 145.909 47.7705 146.346C47.2818 146.778 46.6732 147.042 45.9445 147.138C45.7263 147.164 45.4951 147.181 45.2507 147.19C45.0108 147.194 44.845 147.197 44.7533 147.197H41.8474ZM43.0451 146.084H44.7533C44.9191 146.084 45.1046 146.08 45.3097 146.071C45.5147 146.058 45.6936 146.038 45.8463 146.012C46.3612 145.916 46.7779 145.7 47.0964 145.364C47.4149 145.028 47.6484 144.609 47.7967 144.107C47.9451 143.606 48.0192 143.065 48.0192 142.484C48.0192 141.891 47.9429 141.343 47.7902 140.841C47.6418 140.34 47.4084 139.923 47.0899 139.591C46.7713 139.26 46.3568 139.048 45.8463 138.957C45.6936 138.926 45.5125 138.906 45.3031 138.898C45.0937 138.889 44.9104 138.885 44.7533 138.885H43.0451V146.084ZM53.8202 147.393C53.1264 147.393 52.5199 147.24 52.0007 146.935C51.4858 146.625 51.0844 146.195 50.7964 145.645C50.5084 145.091 50.3645 144.445 50.3645 143.708C50.3645 142.936 50.5063 142.268 50.7899 141.705C51.0735 141.138 51.4684 140.702 51.9745 140.396C52.485 140.087 53.0828 139.932 53.7678 139.932C54.479 139.932 55.0833 140.095 55.5807 140.423C56.0825 140.75 56.4577 141.217 56.7065 141.823C56.9595 142.43 57.0686 143.152 57.0337 143.99H55.8556V143.571C55.8425 142.702 55.6658 142.054 55.3255 141.627C54.9851 141.195 54.479 140.979 53.8071 140.979C53.0871 140.979 52.5395 141.21 52.1643 141.673C51.7891 142.135 51.6014 142.798 51.6014 143.662C51.6014 144.496 51.7891 145.141 52.1643 145.6C52.5395 146.058 53.074 146.287 53.7678 146.287C54.2347 146.287 54.6404 146.18 54.9851 145.966C55.3298 145.752 55.6004 145.445 55.7967 145.043L56.9159 145.429C56.641 146.053 56.2265 146.538 55.6724 146.882C55.1226 147.223 54.5052 147.393 53.8202 147.393ZM51.2087 143.99V143.054H56.4316V143.99H51.2087ZM61.1612 147.386C60.3191 147.386 59.6275 147.203 59.0864 146.837C58.5498 146.466 58.2203 145.949 58.0982 145.285L59.2893 145.096C59.3853 145.48 59.6057 145.785 59.9504 146.012C60.2951 146.234 60.7227 146.346 61.2332 146.346C61.7175 146.346 62.0971 146.245 62.372 146.045C62.6469 145.844 62.7843 145.571 62.7843 145.227C62.7843 145.026 62.7385 144.864 62.6469 144.742C62.5552 144.616 62.3654 144.498 62.0775 144.389C61.7938 144.28 61.3641 144.149 60.7881 143.996C60.1642 143.83 59.6733 143.658 59.3155 143.479C58.9577 143.3 58.7025 143.093 58.5498 142.857C58.397 142.622 58.3207 142.336 58.3207 142C58.3207 141.585 58.4341 141.223 58.661 140.913C58.8879 140.599 59.2042 140.357 59.61 140.187C60.0202 140.017 60.4958 139.932 61.0368 139.932C61.5735 139.932 62.0535 140.017 62.4767 140.187C62.8999 140.357 63.2403 140.599 63.4977 140.913C63.7595 141.223 63.9144 141.585 63.9624 142L62.7712 142.216C62.7145 141.836 62.5312 141.537 62.2214 141.319C61.916 141.101 61.5211 140.985 61.0368 140.972C60.5787 140.955 60.2056 141.036 59.9176 141.215C59.634 141.393 59.4922 141.636 59.4922 141.941C59.4922 142.111 59.5446 142.257 59.6493 142.379C59.7584 142.502 59.9569 142.617 60.2449 142.726C60.5372 142.835 60.9605 142.96 61.5146 143.099C62.1385 143.257 62.6294 143.429 62.9872 143.616C63.3493 143.8 63.6068 144.018 63.7595 144.271C63.9122 144.52 63.9886 144.827 63.9886 145.194C63.9886 145.874 63.7377 146.411 63.2359 146.804C62.7341 147.192 62.0425 147.386 61.1612 147.386ZM65.5629 138.878V137.674H66.7279V138.878H65.5629ZM65.5629 147.197V140.128H66.7279V147.197H65.5629ZM71.5518 150.534C71.1809 150.534 70.8188 150.478 70.4653 150.364C70.1119 150.251 69.7869 150.078 69.4902 149.847C69.1978 149.62 68.9535 149.332 68.7571 148.983L69.8239 148.42C69.9985 148.765 70.245 149.016 70.5635 149.173C70.8864 149.33 71.218 149.409 71.5583 149.409C72.0078 149.409 72.3808 149.326 72.6775 149.16C72.9742 148.999 73.1924 148.756 73.332 148.434C73.476 148.111 73.5458 147.709 73.5414 147.229V145.299H73.6789V140.128H74.713V147.242C74.713 147.434 74.7064 147.62 74.6933 147.799C74.6846 147.978 74.6628 148.154 74.6279 148.329C74.5363 148.831 74.3552 149.243 74.0847 149.566C73.8141 149.893 73.4651 150.135 73.0375 150.292C72.6099 150.454 72.1147 150.534 71.5518 150.534ZM71.4667 147.393C70.8079 147.393 70.2428 147.229 69.7716 146.902C69.3003 146.57 68.936 146.123 68.6786 145.56C68.4255 144.997 68.299 144.363 68.299 143.656C68.299 142.949 68.4255 142.314 68.6786 141.751C68.936 141.188 69.3003 140.745 69.7716 140.423C70.2428 140.095 70.8057 139.932 71.4602 139.932C72.1277 139.932 72.6884 140.093 73.1422 140.416C73.596 140.739 73.9385 141.182 74.1697 141.745C74.4054 142.308 74.5232 142.945 74.5232 143.656C74.5232 144.358 74.4054 144.993 74.1697 145.56C73.9385 146.123 73.596 146.57 73.1422 146.902C72.6884 147.229 72.1299 147.393 71.4667 147.393ZM71.6107 146.326C72.0863 146.326 72.4768 146.213 72.7822 145.986C73.0877 145.754 73.3124 145.438 73.4564 145.037C73.6047 144.631 73.6789 144.171 73.6789 143.656C73.6789 143.132 73.6047 142.672 73.4564 142.275C73.3124 141.873 73.0898 141.561 72.7888 141.339C72.4877 141.112 72.1059 140.999 71.6434 140.999C71.1635 140.999 70.7664 141.116 70.4523 141.352C70.1425 141.588 69.9112 141.906 69.7585 142.308C69.6101 142.709 69.536 143.158 69.536 143.656C69.536 144.158 69.6123 144.611 69.765 145.017C69.9178 145.419 70.1468 145.737 70.4523 145.973C70.762 146.208 71.1482 146.326 71.6107 146.326ZM81.5734 147.197V143.656C81.5734 143.32 81.5429 142.997 81.4818 142.687C81.4251 142.377 81.3226 142.1 81.1742 141.856C81.0302 141.607 80.8339 141.411 80.5852 141.267C80.3408 141.123 80.031 141.051 79.6558 141.051C79.3635 141.051 79.0973 141.101 78.8573 141.201C78.6217 141.297 78.4188 141.446 78.2486 141.646C78.0785 141.847 77.9454 142.1 77.8494 142.406C77.7578 142.707 77.712 143.062 77.712 143.472L76.9462 143.237C76.9462 142.552 77.0684 141.965 77.3127 141.476C77.5614 140.983 77.9083 140.606 78.3534 140.344C78.8028 140.078 79.3307 139.945 79.9372 139.945C80.3954 139.945 80.7859 140.017 81.1088 140.161C81.4316 140.305 81.7 140.497 81.9138 140.737C82.1276 140.972 82.2956 141.239 82.4177 141.535C82.5399 141.828 82.625 142.126 82.673 142.432C82.7254 142.733 82.7515 143.019 82.7515 143.289V147.197H81.5734ZM76.5339 147.197V140.128H77.5811V142.02H77.712V147.197H76.5339ZM84.584 138.878V137.674H85.749V138.878H84.584ZM84.584 147.197V140.128H85.749V147.197H84.584ZM92.7458 147.197V143.656C92.7458 143.32 92.7152 142.997 92.6542 142.687C92.5974 142.377 92.4949 142.1 92.3465 141.856C92.2026 141.607 92.0062 141.411 91.7575 141.267C91.5132 141.123 91.2034 141.051 90.8281 141.051C90.5358 141.051 90.2696 141.101 90.0297 141.201C89.794 141.297 89.5911 141.446 89.421 141.646C89.2508 141.847 89.1177 142.1 89.0217 142.406C88.9301 142.707 88.8843 143.062 88.8843 143.472L88.1185 143.237C88.1185 142.552 88.2407 141.965 88.4851 141.476C88.7338 140.983 89.0806 140.606 89.5257 140.344C89.9751 140.078 90.5031 139.945 91.1096 139.945C91.5677 139.945 91.9582 140.017 92.2811 140.161C92.604 140.305 92.8723 140.497 93.0861 140.737C93.2999 140.972 93.4679 141.239 93.5901 141.535C93.7122 141.828 93.7973 142.126 93.8453 142.432C93.8977 142.733 93.9239 143.019 93.9239 143.289V147.197H92.7458ZM87.7062 147.197V140.128H88.7534V142.02H88.8843V147.197H87.7062ZM98.4855 150.534C98.1147 150.534 97.7525 150.478 97.3991 150.364C97.0457 150.251 96.7206 150.078 96.4239 149.847C96.1316 149.62 95.8872 149.332 95.6909 148.983L96.7577 148.42C96.9322 148.765 97.1787 149.016 97.4973 149.173C97.8201 149.33 98.1518 149.409 98.4921 149.409C98.9415 149.409 99.3146 149.326 99.6113 149.16C99.908 148.999 100.126 148.756 100.266 148.434C100.41 148.111 100.48 147.709 100.475 147.229V145.299H100.613V140.128H101.647V147.242C101.647 147.434 101.64 147.62 101.627 147.799C101.618 147.978 101.597 148.154 101.562 148.329C101.47 148.831 101.289 149.243 101.018 149.566C100.748 149.893 100.399 150.135 99.9712 150.292C99.5436 150.454 99.0484 150.534 98.4855 150.534ZM98.4005 147.393C97.7416 147.393 97.1766 147.229 96.7053 146.902C96.2341 146.57 95.8698 146.123 95.6123 145.56C95.3593 144.997 95.2327 144.363 95.2327 143.656C95.2327 142.949 95.3593 142.314 95.6123 141.751C95.8698 141.188 96.2341 140.745 96.7053 140.423C97.1766 140.095 97.7394 139.932 98.3939 139.932C99.0615 139.932 99.6222 140.093 100.076 140.416C100.53 140.739 100.872 141.182 101.104 141.745C101.339 142.308 101.457 142.945 101.457 143.656C101.457 144.358 101.339 144.993 101.104 145.56C100.872 146.123 100.53 146.57 100.076 146.902C99.6222 147.229 99.0637 147.393 98.4005 147.393ZM98.5444 146.326C99.02 146.326 99.4106 146.213 99.716 145.986C100.021 145.754 100.246 145.438 100.39 145.037C100.538 144.631 100.613 144.171 100.613 143.656C100.613 143.132 100.538 142.672 100.39 142.275C100.246 141.873 100.024 141.561 99.7225 141.339C99.4215 141.112 99.0397 140.999 98.5772 140.999C98.0972 140.999 97.7002 141.116 97.386 141.352C97.0762 141.588 96.845 141.906 96.6922 142.308C96.5439 142.709 96.4697 143.158 96.4697 143.656C96.4697 144.158 96.5461 144.611 96.6988 145.017C96.8515 145.419 97.0806 145.737 97.386 145.973C97.6958 146.208 98.0819 146.326 98.5444 146.326ZM106.095 147.197V137.772H109.819C109.91 137.772 110.019 137.776 110.146 137.785C110.273 137.789 110.395 137.802 110.512 137.824C111.023 137.903 111.451 138.077 111.795 138.348C112.144 138.618 112.406 138.961 112.581 139.375C112.755 139.786 112.842 140.241 112.842 140.743C112.842 141.241 112.753 141.697 112.574 142.111C112.4 142.521 112.138 142.864 111.789 143.139C111.444 143.409 111.019 143.584 110.512 143.662C110.395 143.68 110.273 143.693 110.146 143.702C110.019 143.71 109.91 143.715 109.819 143.715H107.26V147.197H106.095ZM107.26 142.609H109.779C109.862 142.609 109.956 142.604 110.061 142.595C110.17 142.587 110.273 142.571 110.369 142.55C110.67 142.48 110.914 142.353 111.102 142.17C111.294 141.982 111.433 141.764 111.52 141.516C111.608 141.263 111.651 141.005 111.651 140.743C111.651 140.481 111.608 140.226 111.52 139.978C111.433 139.724 111.294 139.504 111.102 139.316C110.914 139.129 110.67 139.002 110.369 138.937C110.273 138.911 110.17 138.895 110.061 138.891C109.956 138.882 109.862 138.878 109.779 138.878H107.26V142.609ZM114.148 147.197V140.128H115.189V141.836L115.018 141.614C115.101 141.396 115.208 141.195 115.339 141.012C115.474 140.828 115.625 140.678 115.791 140.56C115.974 140.412 116.181 140.298 116.413 140.22C116.644 140.141 116.879 140.095 117.119 140.082C117.359 140.065 117.584 140.08 117.793 140.128V141.221C117.549 141.156 117.281 141.138 116.988 141.169C116.696 141.199 116.426 141.306 116.177 141.489C115.95 141.651 115.773 141.847 115.647 142.078C115.525 142.31 115.439 142.561 115.392 142.831C115.344 143.097 115.32 143.37 115.32 143.649V147.197H114.148ZM121.914 147.393C121.211 147.393 120.605 147.234 120.094 146.915C119.588 146.597 119.198 146.156 118.923 145.593C118.648 145.03 118.511 144.384 118.511 143.656C118.511 142.914 118.65 142.264 118.929 141.705C119.209 141.147 119.604 140.713 120.114 140.403C120.625 140.089 121.224 139.932 121.914 139.932C122.621 139.932 123.229 140.091 123.74 140.409C124.25 140.724 124.641 141.162 124.911 141.725C125.186 142.284 125.324 142.927 125.324 143.656C125.324 144.393 125.186 145.043 124.911 145.606C124.637 146.165 124.244 146.603 123.733 146.922C123.223 147.236 122.616 147.393 121.914 147.393ZM121.914 146.287C122.647 146.287 123.192 146.042 123.55 145.554C123.908 145.065 124.087 144.432 124.087 143.656C124.087 142.857 123.906 142.222 123.544 141.751C123.181 141.276 122.638 141.038 121.914 141.038C121.421 141.038 121.015 141.149 120.697 141.372C120.378 141.594 120.14 141.902 119.983 142.294C119.826 142.687 119.748 143.141 119.748 143.656C119.748 144.45 119.931 145.087 120.297 145.567C120.664 146.047 121.203 146.287 121.914 146.287ZM129.54 147.393C128.881 147.393 128.316 147.229 127.845 146.902C127.373 146.57 127.009 146.123 126.752 145.56C126.499 144.997 126.372 144.363 126.372 143.656C126.372 142.949 126.499 142.314 126.752 141.751C127.009 141.188 127.373 140.745 127.845 140.423C128.316 140.095 128.879 139.932 129.533 139.932C130.201 139.932 130.762 140.093 131.215 140.416C131.669 140.739 132.012 141.182 132.243 141.745C132.478 142.308 132.596 142.945 132.596 143.656C132.596 144.358 132.478 144.993 132.243 145.56C132.012 146.123 131.669 146.57 131.215 146.902C130.762 147.229 130.203 147.393 129.54 147.393ZM129.684 146.326C130.159 146.326 130.55 146.213 130.855 145.986C131.161 145.754 131.385 145.438 131.529 145.037C131.678 144.631 131.752 144.171 131.752 143.656C131.752 143.132 131.678 142.672 131.529 142.275C131.385 141.873 131.163 141.561 130.862 141.339C130.561 141.112 130.179 140.999 129.717 140.999C129.237 140.999 128.84 141.116 128.525 141.352C128.216 141.588 127.984 141.906 127.832 142.308C127.683 142.709 127.609 143.158 127.609 143.656C127.609 144.158 127.685 144.611 127.838 145.017C127.991 145.419 128.22 145.737 128.525 145.973C128.835 146.208 129.221 146.326 129.684 146.326ZM131.752 147.197V141.993H131.621V137.772H132.793V147.197H131.752ZM137.31 147.38C136.856 147.38 136.465 147.308 136.138 147.164C135.815 147.02 135.547 146.828 135.333 146.588C135.119 146.348 134.951 146.082 134.829 145.789C134.707 145.497 134.62 145.198 134.567 144.893C134.519 144.587 134.495 144.302 134.495 144.035V140.128H135.674V143.669C135.674 144 135.704 144.321 135.765 144.631C135.826 144.941 135.929 145.22 136.073 145.469C136.221 145.717 136.417 145.914 136.662 146.058C136.91 146.202 137.22 146.274 137.591 146.274C137.883 146.274 138.15 146.224 138.39 146.123C138.63 146.023 138.835 145.874 139.005 145.678C139.175 145.477 139.306 145.224 139.398 144.919C139.489 144.613 139.535 144.258 139.535 143.852L140.301 144.088C140.301 144.768 140.176 145.355 139.928 145.848C139.683 146.341 139.336 146.721 138.887 146.987C138.442 147.249 137.916 147.38 137.31 147.38ZM139.666 147.197V145.305H139.535V140.128H140.707V147.197H139.666ZM145.517 147.393C144.801 147.393 144.193 147.234 143.691 146.915C143.193 146.592 142.814 146.149 142.552 145.586C142.29 145.024 142.155 144.382 142.146 143.662C142.155 142.925 142.292 142.277 142.559 141.718C142.829 141.156 143.215 140.717 143.717 140.403C144.219 140.089 144.823 139.932 145.53 139.932C146.276 139.932 146.918 140.115 147.454 140.481C147.995 140.848 148.357 141.35 148.541 141.987L147.389 142.334C147.24 141.924 146.998 141.605 146.662 141.378C146.331 141.151 145.949 141.038 145.517 141.038C145.033 141.038 144.633 141.151 144.319 141.378C144.005 141.601 143.772 141.91 143.619 142.308C143.466 142.7 143.388 143.152 143.383 143.662C143.392 144.448 143.573 145.083 143.927 145.567C144.284 146.047 144.814 146.287 145.517 146.287C145.979 146.287 146.363 146.182 146.669 145.973C146.974 145.759 147.206 145.451 147.363 145.05L148.541 145.357C148.296 146.016 147.915 146.52 147.395 146.869C146.876 147.218 146.25 147.393 145.517 147.393ZM153.823 147.197C153.404 147.279 152.99 147.312 152.579 147.295C152.174 147.282 151.812 147.201 151.493 147.053C151.174 146.9 150.932 146.664 150.767 146.346C150.627 146.066 150.551 145.785 150.537 145.501C150.529 145.213 150.524 144.888 150.524 144.526V138.165H151.689V144.474C151.689 144.762 151.692 145.008 151.696 145.213C151.705 145.419 151.75 145.595 151.833 145.744C151.99 146.023 152.239 146.186 152.579 146.234C152.924 146.282 153.339 146.269 153.823 146.195V147.197ZM149.091 141.09V140.128H153.823V141.09H149.091ZM157.928 147.386C157.086 147.386 156.395 147.203 155.854 146.837C155.317 146.466 154.988 145.949 154.865 145.285L156.057 145.096C156.153 145.48 156.373 145.785 156.718 146.012C157.062 146.234 157.49 146.346 158 146.346C158.485 146.346 158.864 146.245 159.139 146.045C159.414 145.844 159.552 145.571 159.552 145.227C159.552 145.026 159.506 144.864 159.414 144.742C159.322 144.616 159.133 144.498 158.845 144.389C158.561 144.28 158.131 144.149 157.555 143.996C156.931 143.83 156.441 143.658 156.083 143.479C155.725 143.3 155.47 143.093 155.317 142.857C155.164 142.622 155.088 142.336 155.088 142C155.088 141.585 155.201 141.223 155.428 140.913C155.655 140.599 155.971 140.357 156.377 140.187C156.787 140.017 157.263 139.932 157.804 139.932C158.341 139.932 158.821 140.017 159.244 140.187C159.667 140.357 160.007 140.599 160.265 140.913C160.527 141.223 160.682 141.585 160.73 142L159.538 142.216C159.482 141.836 159.298 141.537 158.989 141.319C158.683 141.101 158.288 140.985 157.804 140.972C157.346 140.955 156.973 141.036 156.685 141.215C156.401 141.393 156.259 141.636 156.259 141.941C156.259 142.111 156.312 142.257 156.417 142.379C156.526 142.502 156.724 142.617 157.012 142.726C157.304 142.835 157.728 142.96 158.282 143.099C158.906 143.257 159.397 143.429 159.754 143.616C160.117 143.8 160.374 144.018 160.527 144.271C160.679 144.52 160.756 144.827 160.756 145.194C160.756 145.874 160.505 146.411 160.003 146.804C159.501 147.192 158.81 147.386 157.928 147.386Z" fill="#121212"/>
</svg>
