<svg width="20" height="21" viewBox="0 0 20 21" fill="none" xmlns="http://www.w3.org/2000/svg">
<path fill-rule="evenodd" clip-rule="evenodd" d="M14.5125 12.485C14.2642 12.3609 13.0467 11.7625 12.82 11.6792C12.5933 11.5967 12.4283 11.5559 12.2625 11.8042C12.0975 12.0509 11.6233 12.6092 11.4792 12.7742C11.3342 12.94 11.19 12.96 10.9425 12.8367C10.695 12.7117 9.89667 12.4509 8.95083 11.6075C8.215 10.9509 7.7175 10.14 7.57333 9.8917C7.42917 9.6442 7.5575 9.51003 7.68167 9.3867C7.79333 9.27587 7.92917 9.09753 8.05333 8.95337C8.1775 8.80837 8.21833 8.70504 8.30083 8.5392C8.38417 8.3742 8.3425 8.23003 8.28 8.10587C8.21833 7.9817 7.72333 6.76253 7.51667 6.2667C7.31583 5.7842 7.11167 5.85003 6.96 5.8417C6.815 5.83503 6.65 5.83337 6.485 5.83337C6.32 5.83337 6.05167 5.89503 5.825 6.14337C5.5975 6.39087 4.95833 6.99003 4.95833 8.2092C4.95833 9.42754 5.845 10.605 5.96917 10.7709C6.09333 10.9359 7.715 13.4375 10.1992 14.51C10.7908 14.765 11.2517 14.9175 11.6108 15.0309C12.2042 15.22 12.7442 15.1934 13.1708 15.1292C13.6458 15.0584 14.6358 14.53 14.8425 13.9517C15.0483 13.3734 15.0483 12.8775 14.9867 12.7742C14.925 12.6709 14.76 12.6092 14.5117 12.485H14.5125ZM9.99417 18.6542H9.99083C8.51536 18.6545 7.06698 18.2578 5.7975 17.5059L5.4975 17.3275L2.37917 18.1459L3.21167 15.1059L3.01583 14.7942C2.19095 13.4812 1.75441 11.9615 1.75667 10.4109C1.75833 5.8692 5.45333 2.1742 9.9975 2.1742C12.1975 2.1742 14.2658 3.03253 15.8208 4.5892C16.5878 5.35302 17.1957 6.26134 17.6094 7.26162C18.0231 8.26189 18.2343 9.33427 18.2308 10.4167C18.2292 14.9584 14.5342 18.6542 9.99417 18.6542ZM17.0042 3.4067C16.086 2.48247 14.9935 1.74965 13.7901 1.2507C12.5866 0.751754 11.2961 0.496603 9.99333 0.500034C4.53167 0.500034 0.085 4.94587 0.0833333 10.41C0.0808025 12.149 0.536979 13.8579 1.40583 15.3642L0 20.5L5.25333 19.1217C6.70656 19.9135 8.33508 20.3283 9.99 20.3284H9.99417C15.4558 20.3284 19.9025 15.8825 19.9042 10.4175C19.9082 9.11526 19.654 7.82512 19.1562 6.62173C18.6584 5.41834 17.927 4.32559 17.0042 3.4067Z" fill="white"/>
</svg>
